<svg width="14" height="15" viewBox="0 0 14 15" fill="none" xmlns="http://www.w3.org/2000/svg">
<g clip-path="url(#clip0_1_10132)">
<g clip-path="url(#clip1_1_10132)">
<mask id="mask0_1_10132" style="mask-type:luminance" maskUnits="userSpaceOnUse" x="0" y="0" width="14" height="15">
<path d="M0 0.5H14V14.5H0V0.5Z" fill="white"/>
</mask>
<g mask="url(#mask0_1_10132)">
<path d="M7.00027 14.4283C7.91006 14.4283 8.81095 14.2491 9.6515 13.9009C10.492 13.5527 11.2558 13.0424 11.8991 12.3991C12.5424 11.7558 13.0527 10.992 13.4009 10.1515C13.7491 9.31095 13.9283 8.41006 13.9283 7.50027C13.9283 6.59047 13.7491 5.68958 13.4009 4.84903C13.0527 4.00849 12.5424 3.24475 11.8991 2.60143C11.2558 1.95811 10.492 1.44779 9.6515 1.09963C8.81095 0.751464 7.91006 0.572266 7.00027 0.572266C5.16285 0.572266 3.40068 1.30218 2.10143 2.60143C0.802178 3.90068 0.0722656 5.66285 0.0722656 7.50027C0.0722656 9.33769 0.802178 11.0998 2.10143 12.3991C3.40068 13.6984 5.16285 14.4283 7.00027 14.4283Z" fill="#50AF00"/>
<path d="M7.5342 6.97948V5.76748H8.5152C8.65618 5.76542 8.79081 5.70849 8.89051 5.60879C8.99021 5.50909 9.04713 5.37447 9.0492 5.23348C9.05001 5.09031 8.99446 4.95256 8.89453 4.85002C8.79461 4.74747 8.65835 4.68837 8.5152 4.68548H7.5342V4.55548C7.53213 4.4145 7.47521 4.27987 7.37551 4.18017C7.27581 4.08047 7.14118 4.02355 7.0002 4.02148C6.85921 4.02355 6.72459 4.08047 6.62489 4.18017C6.52519 4.27987 6.46826 4.4145 6.4662 4.55548V4.68548C6.05178 4.72272 5.66633 4.91377 5.38575 5.22101C5.10516 5.52824 4.94978 5.9294 4.9502 6.34548C4.9502 7.21048 5.6142 7.93248 6.4662 8.00548V9.21748H5.4852C5.34404 9.21929 5.20916 9.2761 5.10924 9.37583C5.00933 9.47556 4.95227 9.61033 4.9502 9.75148C4.9502 10.0395 5.1962 10.2855 5.4852 10.2855H6.4662V10.4155C6.4662 10.7035 6.7112 10.9495 7.0002 10.9495C7.14118 10.9474 7.27581 10.8905 7.37551 10.7908C7.47521 10.6911 7.53213 10.5565 7.5342 10.4155V10.2855C7.94843 10.248 8.33364 10.0569 8.61402 9.74965C8.8944 9.44244 9.04964 9.04141 9.0492 8.62548C9.0492 7.75948 8.3862 7.05248 7.5342 6.97948ZM7.5342 9.21748V8.04748C7.7942 8.12048 7.9812 8.35148 7.9812 8.63948C7.98245 8.77204 7.93903 8.90115 7.85794 9.00601C7.77685 9.11087 7.6628 9.18536 7.5342 9.21748ZM6.4662 5.78248V6.95148C6.33663 6.91627 6.22244 6.83902 6.14153 6.73187C6.06063 6.62472 6.0176 6.49374 6.0192 6.35948C6.01817 6.2271 6.06169 6.09822 6.14276 5.99357C6.22384 5.88891 6.33776 5.81457 6.4662 5.78248Z" fill="white"/>
</g>
</g>
</g>
<defs>
<clipPath id="clip0_1_10132">
<rect width="14" height="14" fill="white" transform="translate(0 0.5)"/>
</clipPath>
<clipPath id="clip1_1_10132">
<rect width="14" height="14" fill="white" transform="translate(0 0.5)"/>
</clipPath>
</defs>
</svg>
