<svg width="50" height="50" viewBox="0 0 50 50" fill="none" xmlns="http://www.w3.org/2000/svg">
<g clip-path="url(#clip0_47_2886)">
<g clip-path="url(#clip1_47_2886)">
<mask id="mask0_47_2886" style="mask-type:luminance" maskUnits="userSpaceOnUse" x="-1" y="0" width="51" height="50">
<path d="M-0.000488281 0.181641H49.6274V49.8095H-0.000488281V0.181641Z" fill="white"/>
</mask>
<g mask="url(#mask0_47_2886)">
<path d="M24.8135 49.8095C38.5181 49.8095 49.6274 38.7002 49.6274 24.9956C49.6274 11.291 38.5181 0.181641 24.8135 0.181641C11.1089 0.181641 -0.000488281 11.291 -0.000488281 24.9956C-0.000488281 38.7002 11.1089 49.8095 24.8135 49.8095Z" fill="#039BE5"/>
<path d="M11.3548 24.459L35.2784 15.234C36.3892 14.8326 37.3598 15.5055 37.0007 17.1841V17.1812L32.9283 36.3741C32.6262 37.7344 31.819 38.0643 30.6863 37.425L24.4828 32.8519L21.4906 35.7347C21.1607 36.0661 20.8804 36.3449 20.2396 36.3449L20.6805 30.0319L32.1781 19.6451C32.6787 19.2043 32.0657 18.9561 31.4059 19.394L17.1977 28.3402L11.0731 26.428C9.7448 26.0077 9.71561 25.1012 11.3548 24.459Z" fill="white"/>
</g>
</g>
</g>
<defs>
<clipPath id="clip0_47_2886">
<rect width="49.6279" height="49.6279" fill="white" transform="translate(0 0.185547)"/>
</clipPath>
<clipPath id="clip1_47_2886">
<rect width="49.6279" height="49.6279" fill="white" transform="translate(0 0.185547)"/>
</clipPath>
</defs>
</svg>
