<svg width="51" height="50" viewBox="0 0 51 50" fill="none" xmlns="http://www.w3.org/2000/svg">
<g clip-path="url(#clip0_47_2896)">
<g clip-path="url(#clip1_47_2896)">
<mask id="mask0_47_2896" style="mask-type:luminance" maskUnits="userSpaceOnUse" x="0" y="0" width="51" height="50">
<path d="M0.627441 0.181641H50.2553V49.8095H0.627441V0.181641Z" fill="white"/>
</mask>
<g mask="url(#mask0_47_2896)">
<path d="M25.4414 49.8095C39.146 49.8095 50.2553 38.7002 50.2553 24.9956C50.2553 11.291 39.146 0.181641 25.4414 0.181641C11.7368 0.181641 0.627441 11.291 0.627441 24.9956C0.627441 38.7002 11.7368 49.8095 25.4414 49.8095Z" fill="#29A71A"/>
<path d="M36.381 14.056C33.7993 11.4491 30.371 9.85041 26.7145 9.54835C23.0579 9.24629 19.4138 10.2607 16.4393 12.4086C13.4648 14.5566 11.3556 17.6967 10.4922 21.2626C9.62881 24.8286 10.068 28.5857 11.7305 31.8564L10.1001 39.7822C10.0828 39.8613 10.082 39.9431 10.0979 40.0225C10.1137 40.1018 10.1458 40.1771 10.1921 40.2435C10.26 40.3437 10.357 40.4207 10.4699 40.4643C10.5829 40.5078 10.7065 40.5158 10.8241 40.4872L18.5923 38.6466C21.8537 40.2666 25.584 40.6772 29.1197 39.8054C32.6553 38.9335 35.7671 36.8358 37.9015 33.8853C40.0358 30.9348 41.0544 27.3228 40.776 23.6919C40.4976 20.061 38.9403 16.6466 36.381 14.056ZM33.958 33.3875C32.1719 35.1689 29.8719 36.3448 27.3821 36.7497C24.8922 37.1545 22.3381 36.7679 20.0797 35.6441L18.9966 35.1084L14.2353 36.2353L14.2499 36.1769L15.2351 31.3834L14.7053 30.3369C13.6971 28.3573 13.2559 26.1375 13.4305 23.9228C13.6051 21.7082 14.3887 19.5849 15.6947 17.7878C17.0007 15.9907 18.7782 14.5897 20.8307 13.7398C22.8832 12.8898 25.1308 12.624 27.3249 12.9716C29.5191 13.3193 31.5744 14.2669 33.2636 15.7098C34.9528 17.1526 36.2101 19.0345 36.8966 21.1473C37.583 23.2601 37.6718 25.5216 37.1532 27.6818C36.6347 29.8419 35.5288 31.8166 33.958 33.3875Z" fill="white"/>
<path d="M33.5368 29.8698C32.953 30.7893 32.0305 31.9133 30.8715 32.1935C28.8426 32.684 25.7248 32.211 21.848 28.5955L21.7998 28.5532C18.3915 25.3916 17.5055 22.7613 17.7201 20.6755C17.8383 19.4902 18.8251 18.4189 19.6571 17.7197C19.7886 17.6077 19.9445 17.528 20.1124 17.4869C20.2802 17.4458 20.4553 17.4445 20.6237 17.4831C20.7921 17.5216 20.9492 17.599 21.0825 17.709C21.2157 17.819 21.3214 17.9586 21.3911 18.1167L22.6464 20.9368C22.728 21.1197 22.7582 21.3214 22.7338 21.5202C22.7094 21.719 22.6312 21.9073 22.5077 22.0651L21.8743 22.8883C21.738 23.0583 21.6557 23.2653 21.638 23.4825C21.6203 23.6997 21.668 23.9172 21.775 24.1071C22.1297 24.7304 22.9821 25.6456 23.9265 26.4951C24.9862 27.4541 26.1627 28.3298 26.9071 28.6291C27.1064 28.7106 27.3256 28.7306 27.5363 28.6863C27.7471 28.6421 27.9397 28.5357 28.0894 28.3809L28.8236 27.6394C28.9657 27.4992 29.1424 27.3992 29.3358 27.3497C29.5292 27.3002 29.7322 27.303 29.9242 27.3577L32.9048 28.2043C33.0689 28.2551 33.2192 28.3425 33.3444 28.4601C33.4696 28.5777 33.5663 28.7222 33.6273 28.8828C33.6882 29.0434 33.7117 29.2157 33.696 29.3867C33.6804 29.5578 33.6259 29.723 33.5368 29.8698Z" fill="white"/>
</g>
</g>
</g>
<defs>
<clipPath id="clip0_47_2896">
<rect width="49.6279" height="49.6279" fill="white" transform="translate(0.62793 0.185547)"/>
</clipPath>
<clipPath id="clip1_47_2896">
<rect width="49.6279" height="49.6279" fill="white" transform="translate(0.62793 0.185547)"/>
</clipPath>
</defs>
</svg>
