<svg width="36" height="36" viewBox="0 0 36 36" fill="none" xmlns="http://www.w3.org/2000/svg">
<g clip-path="url(#clip0_1_10169)">
<g clip-path="url(#clip1_1_10169)">
<mask id="mask0_1_10169" style="mask-type:luminance" maskUnits="userSpaceOnUse" x="0" y="0" width="36" height="36">
<path d="M0 0H36V36H0V0Z" fill="white"/>
</mask>
<g mask="url(#mask0_1_10169)">
<path d="M18 36C27.941 36 36 27.941 36 18C36 8.059 27.941 0 18 0C8.059 0 0 8.059 0 18C0 27.941 8.059 36 18 36Z" fill="#2AA81A"/>
<path d="M24.3498 11.6502C22.852 10.1349 20.8619 9.20513 18.7386 9.02872C16.6154 8.85231 14.4991 9.44092 12.7718 10.6882C11.0446 11.9356 9.82028 13.7594 9.31999 15.8304C8.8197 17.9013 9.07641 20.0829 10.0438 21.9812L9.09676 26.5812C9.08676 26.6271 9.08649 26.6745 9.09597 26.7205C9.10544 26.7665 9.12445 26.81 9.15176 26.8482C9.19087 26.906 9.24663 26.9505 9.31164 26.9759C9.37666 27.0013 9.44784 27.0062 9.51576 26.9902L14.0158 25.9222C15.9087 26.8624 18.0737 27.1008 20.1258 26.5949C22.1779 26.0891 23.9841 24.8717 25.2231 23.1594C26.4621 21.4471 27.0536 19.3508 26.8924 17.2435C26.7312 15.1361 25.8278 13.1541 24.3428 11.6502H24.3498ZM22.9428 22.8702C21.9068 23.9043 20.5728 24.5877 19.1283 24.8243C17.6838 25.0609 16.2015 24.8388 14.8898 24.1892L14.2598 23.8762L11.4958 24.5302V24.4942L12.0788 21.7062L11.7708 21.1002C11.2272 20.0346 10.9663 18.8474 11.013 17.6521C11.0598 16.4569 11.4126 15.2936 12.0378 14.2738C12.6629 13.2539 13.5394 12.4117 14.5833 11.8276C15.6272 11.2436 16.8036 10.9373 17.9998 10.9382C19.8538 10.9382 21.6308 11.6742 22.9428 12.9842L22.9728 13.0262C24.2671 14.3404 24.9897 16.1128 24.9832 17.9574C24.9766 19.802 24.2414 21.5692 22.9378 22.8742L22.9428 22.8692V22.8702Z" fill="white"/>
<path d="M22.6989 20.8412C22.3599 21.3742 21.8229 22.0252 21.1519 22.1892C19.9679 22.4732 18.1659 22.1892 15.9089 20.1022L15.8799 20.0762C13.9169 18.2432 13.3959 16.7162 13.5119 15.5052C13.5809 14.8152 14.1539 14.1952 14.6369 13.7882C14.7137 13.7235 14.8045 13.6776 14.9022 13.6543C14.9999 13.631 15.1017 13.6309 15.1994 13.6539C15.2972 13.6769 15.3882 13.7225 15.4652 13.7869C15.5422 13.8514 15.603 13.933 15.6429 14.0252L16.3699 15.6682C16.4175 15.774 16.4354 15.8908 16.4216 16.006C16.4079 16.1212 16.363 16.2305 16.2919 16.3222L15.9219 16.7962C15.8454 16.8945 15.7999 17.0134 15.7911 17.1377C15.7824 17.262 15.8109 17.3861 15.8729 17.4942C16.2235 18.0117 16.6434 18.4787 17.1209 18.8822C17.6346 19.3769 18.2173 19.7946 18.8509 20.1222C18.9664 20.1686 19.0931 20.1797 19.215 20.1539C19.3368 20.128 19.4481 20.0665 19.5349 19.9772L19.9589 19.5462C20.0396 19.4596 20.1426 19.397 20.2565 19.3653C20.3705 19.3335 20.491 19.3338 20.6049 19.3662L22.3349 19.8602C22.4327 19.8883 22.5226 19.939 22.5972 20.0083C22.6719 20.0775 22.7292 20.1633 22.7646 20.2587C22.8 20.3542 22.8125 20.4566 22.8011 20.5578C22.7897 20.6589 22.7547 20.756 22.6989 20.8412Z" fill="white"/>
</g>
</g>
</g>
<defs>
<clipPath id="clip0_1_10169">
<rect width="36" height="36" fill="white"/>
</clipPath>
<clipPath id="clip1_1_10169">
<rect width="36" height="36" fill="white"/>
</clipPath>
</defs>
</svg>
