<svg width="36" height="37" viewBox="0 0 36 37" fill="none" xmlns="http://www.w3.org/2000/svg">
<g clip-path="url(#clip0_1_10181)">
<g clip-path="url(#clip1_1_10181)">
<path d="M18.0001 36.2151C27.7046 36.2151 35.5716 28.3481 35.5716 18.6437C35.5716 8.93926 27.7046 1.07227 18.0001 1.07227C8.29571 1.07227 0.428711 8.93926 0.428711 18.6437C0.428711 28.3481 8.29571 36.2151 18.0001 36.2151Z" fill="#1AA6E8"/>
<mask id="mask0_1_10181" style="mask-type:luminance" maskUnits="userSpaceOnUse" x="11" y="11" width="14" height="15">
<path d="M11.1426 11.7871H24.8569V25.5014H11.1426V11.7871Z" fill="white"/>
</mask>
<g mask="url(#mask0_1_10181)">
<path d="M24.8269 22.4138C24.7883 22.2972 24.5414 22.1249 24.0871 21.8978C23.913 21.798 23.7376 21.7006 23.5609 21.6055C23.354 21.4933 23.148 21.3796 22.9429 21.2643C22.7677 21.1663 22.594 21.0657 22.4217 20.9626C22.396 20.9429 22.3146 20.8863 22.1783 20.7921C22.0682 20.7139 21.9524 20.644 21.832 20.5829C21.7458 20.5394 21.6509 20.5159 21.5543 20.5143C21.4249 20.5143 21.2629 20.6069 21.0683 20.7921C20.8729 20.9772 20.6946 21.1778 20.5326 21.3963C20.3697 21.6141 20.1983 21.8146 20.0166 21.9998C19.834 22.1849 19.6849 22.2775 19.5683 22.2775C19.493 22.2741 19.4187 22.2579 19.3489 22.2295C19.281 22.205 19.2144 22.1772 19.1491 22.1463C19.0695 22.1036 18.9914 22.0578 18.9151 22.0092C18.8046 21.9415 18.7437 21.9038 18.73 21.8978C17.8403 21.4041 17.0774 20.8392 16.4414 20.2032C15.8054 19.5663 15.2406 18.8035 14.7469 17.9146C14.7109 17.8519 14.6737 17.7899 14.6354 17.7286C14.5867 17.6524 14.541 17.5744 14.4983 17.4946C14.4672 17.4298 14.4394 17.3634 14.4151 17.2958C14.3867 17.2259 14.3705 17.1517 14.3671 17.0763C14.3671 16.9598 14.4597 16.8106 14.644 16.6281C14.8335 16.4425 15.0354 16.2701 15.2483 16.1121C15.466 15.9492 15.6674 15.7709 15.8517 15.5763C16.0369 15.3818 16.1294 15.2198 16.1294 15.0895C16.128 14.9929 16.1045 14.8979 16.0609 14.8118C15.9999 14.6916 15.9299 14.5761 15.8517 14.4663C15.7574 14.3292 15.7009 14.2486 15.682 14.2229C15.5789 14.0505 15.478 13.8768 15.3794 13.7018C15.2645 13.4963 15.1511 13.29 15.0391 13.0829C14.9157 12.8558 14.818 12.6801 14.7469 12.5575C14.5197 12.1032 14.3474 11.8555 14.2309 11.8169C14.1651 11.7942 14.0955 11.7843 14.026 11.7878C13.7943 11.7954 13.5641 11.8281 13.3394 11.8855C13.1111 11.933 12.8876 12.0013 12.6717 12.0895C12.3477 12.2266 12.0031 12.6218 11.6397 13.2775C11.3089 13.8878 11.1426 14.4921 11.1426 15.0895C11.1426 15.2643 11.1546 15.4349 11.1769 15.6003C11.2 15.7666 11.2403 15.9535 11.2986 16.1609C11.3569 16.3683 11.404 16.5226 11.44 16.6238C11.476 16.7241 11.5429 16.9041 11.6397 17.1638C11.7366 17.4235 11.7957 17.5829 11.8146 17.6412C12.0417 18.2772 12.3117 18.8455 12.6229 19.3461C13.1363 20.1775 13.8357 21.0355 14.722 21.9218C15.6083 22.8089 16.4671 23.5075 17.2986 24.0218C17.7983 24.3329 18.3666 24.6021 19.0026 24.8301C19.0617 24.8489 19.2203 24.9072 19.48 25.0049C19.7397 25.1026 19.9197 25.1686 20.02 25.2046C20.1211 25.2406 20.2754 25.2878 20.4829 25.3461C20.6911 25.4043 20.8771 25.4455 21.0434 25.4678C21.2089 25.4901 21.3794 25.5021 21.5543 25.5021C22.1517 25.5021 22.756 25.3366 23.3663 25.0049C24.022 24.6415 24.418 24.2978 24.5543 23.9729C24.6263 23.8101 24.694 23.5881 24.7591 23.3052C24.8243 23.0223 24.856 22.7943 24.856 22.6195C24.8596 22.5497 24.8497 22.4798 24.8269 22.4138Z" fill="white"/>
</g>
</g>
</g>
<defs>
<clipPath id="clip0_1_10181">
<rect width="36" height="36" fill="white" transform="translate(0 0.644531)"/>
</clipPath>
<clipPath id="clip1_1_10181">
<rect width="36" height="36" fill="white" transform="translate(0 0.644531)"/>
</clipPath>
</defs>
</svg>
