<svg width="40" height="40" viewBox="0 0 40 40" fill="none" xmlns="http://www.w3.org/2000/svg">
<g clip-path="url(#clip0_13_2545)">
<g clip-path="url(#clip1_13_2545)">
<path d="M20 40C31.0457 40 40 31.0457 40 20C40 8.9543 31.0457 0 20 0C8.9543 0 0 8.9543 0 20C0 31.0457 8.9543 40 20 40Z" fill="#1AA6E8"/>
<mask id="mask0_13_2545" style="mask-type:luminance" maskUnits="userSpaceOnUse" x="11" y="11" width="18" height="18">
<path d="M11.667 11.668H28.3337V28.3346H11.667V11.668Z" fill="white"/>
</mask>
<g mask="url(#mask0_13_2545)">
<path d="M18.5662 21.433C16.9762 19.8414 16.6162 18.2497 16.5362 17.613C16.5252 17.526 16.5343 17.4376 16.5629 17.3546C16.5915 17.2717 16.6388 17.1964 16.7012 17.1347L17.9879 15.848C18.08 15.7561 18.1382 15.6357 18.1531 15.5065C18.1679 15.3772 18.1385 15.2467 18.0696 15.1364L16.0196 11.953C15.9435 11.8318 15.8251 11.7434 15.6873 11.7048C15.5496 11.6663 15.4024 11.6805 15.2745 11.7447L11.9846 13.2947C11.88 13.3461 11.7936 13.4282 11.737 13.5301C11.6804 13.632 11.6563 13.7487 11.6679 13.8647C11.8412 15.503 12.5545 19.5297 16.5112 23.4864C20.4679 27.443 24.4946 28.158 26.1329 28.3297C26.2491 28.3416 26.3662 28.3177 26.4684 28.2611C26.5706 28.2045 26.653 28.1179 26.7046 28.013L28.2545 24.723C28.3182 24.5954 28.3322 24.4486 28.2937 24.3112C28.2552 24.1738 28.167 24.0557 28.0462 23.9797L24.8629 21.9297C24.7525 21.8608 24.622 21.8313 24.4928 21.8462C24.3635 21.861 24.2431 21.9192 24.1512 22.0114L22.8645 23.298C22.8028 23.3604 22.7276 23.4077 22.6446 23.4363C22.5617 23.4649 22.4733 23.4741 22.3862 23.463C21.7495 23.3814 20.1579 23.023 18.5679 21.4314L18.5662 21.433Z" fill="white"/>
<path d="M24.8838 20.578C24.7313 20.578 24.5851 20.5174 24.4772 20.4096C24.3694 20.3017 24.3088 20.1555 24.3088 20.003C24.3071 18.8604 23.8524 17.7652 23.0445 16.9573C22.2366 16.1494 21.1414 15.6947 19.9988 15.693C19.8463 15.693 19.7001 15.6324 19.5922 15.5246C19.4844 15.4167 19.4238 15.2705 19.4238 15.118C19.4238 14.9655 19.4844 14.8192 19.5922 14.7114C19.7001 14.6035 19.8463 14.543 19.9988 14.543C21.4464 14.5447 22.8341 15.1205 23.8577 16.1441C24.8812 17.1677 25.4571 18.5554 25.4588 20.003C25.4588 20.3196 25.2005 20.578 24.8838 20.578Z" fill="white"/>
<path d="M27.7572 20.5763C27.6047 20.5763 27.4584 20.5157 27.3506 20.4079C27.2427 20.3001 27.1822 20.1538 27.1822 20.0013C27.18 18.0968 26.4224 16.271 25.0758 14.9244C23.7291 13.5777 21.9033 12.8202 19.9988 12.818C19.8463 12.818 19.7001 12.7574 19.5922 12.6496C19.4844 12.5417 19.4238 12.3955 19.4238 12.243C19.4238 12.0905 19.4844 11.9442 19.5922 11.8364C19.7001 11.7285 19.8463 11.668 19.9988 11.668C22.2082 11.6706 24.3262 12.5494 25.8885 14.1117C27.4507 15.6739 28.3295 17.792 28.3322 20.0013C28.3322 20.1538 28.2716 20.3001 28.1637 20.4079C28.0559 20.5157 27.9097 20.5763 27.7572 20.5763Z" fill="white"/>
</g>
</g>
</g>
<defs>
<clipPath id="clip0_13_2545">
<rect width="40" height="40" fill="white"/>
</clipPath>
<clipPath id="clip1_13_2545">
<rect width="40" height="40" fill="white"/>
</clipPath>
</defs>
</svg>
