<svg width="14" height="15" viewBox="0 0 14 15" fill="none" xmlns="http://www.w3.org/2000/svg">
<g clip-path="url(#clip0_1_10145)">
<g clip-path="url(#clip1_1_10145)">
<mask id="mask0_1_10145" style="mask-type:luminance" maskUnits="userSpaceOnUse" x="0" y="0" width="14" height="15">
<path d="M0 0.5H14V14.5H0V0.5Z" fill="white"/>
</mask>
<g mask="url(#mask0_1_10145)">
<path d="M14 7.5C14 9.35652 13.2625 11.137 11.9497 12.4497C10.637 13.7625 8.85652 14.5 7 14.5C5.14348 14.5 3.36301 13.7625 2.05025 12.4497C0.737498 11.137 0 9.35652 0 7.5C0 5.64348 0.737498 3.86301 2.05025 2.55025C3.36301 1.2375 5.14348 0.5 7 0.5C8.85652 0.5 10.637 1.2375 11.9497 2.55025C13.2625 3.86301 14 5.64348 14 7.5Z" fill="#FFC107"/>
<path d="M8.44637 10.6824C8.34392 10.6823 8.24421 10.6493 8.16193 10.5883C8.07965 10.5272 8.01916 10.4414 7.98937 10.3434L7.00037 7.07737L6.01037 10.3434C5.94937 10.5484 5.78037 10.6734 5.54037 10.6824C5.43565 10.6795 5.33479 10.6422 5.25343 10.5762C5.17207 10.5102 5.11476 10.4193 5.09037 10.3174L3.93337 5.54437C3.91859 5.48344 3.91596 5.42019 3.92563 5.35824C3.9353 5.2963 3.95708 5.23686 3.98972 5.18332C4.02236 5.12979 4.06522 5.08321 4.11586 5.04624C4.16651 5.00928 4.22393 4.98265 4.28487 4.96787C4.3458 4.9531 4.40905 4.95047 4.47099 4.96014C4.53294 4.96981 4.59238 4.99159 4.64591 5.02423C4.69945 5.05687 4.74603 5.09973 4.78299 5.15037C4.81996 5.20101 4.84659 5.25844 4.86137 5.31937L5.60537 8.38937L6.54437 5.29337C6.57346 5.19487 6.63364 5.10842 6.71592 5.04693C6.79819 4.98544 6.89815 4.95222 7.00087 4.95222C7.10358 4.95222 7.20354 4.98544 7.28581 5.04693C7.36809 5.10842 7.42827 5.19487 7.45737 5.29337L8.39637 8.39037L9.14037 5.32037C9.15371 5.25811 9.17939 5.19914 9.21589 5.14696C9.25239 5.09478 9.29897 5.05043 9.35288 5.01654C9.40679 4.98264 9.46695 4.95989 9.52979 4.94961C9.59264 4.93933 9.65691 4.94175 9.71881 4.9567C9.78071 4.97166 9.83898 4.99886 9.8902 5.0367C9.94142 5.07454 9.98455 5.12225 10.017 5.17702C10.0495 5.23179 10.0707 5.29252 10.0794 5.35561C10.088 5.4187 10.0839 5.48288 10.0674 5.54437L8.91037 10.3174C8.88563 10.419 8.82819 10.5097 8.74688 10.5754C8.66557 10.6412 8.5649 10.6784 8.46037 10.6814H8.44637V10.6824Z" fill="#FAFAFA"/>
<path d="M10.3401 7.18156H9.37414C9.2475 7.18156 9.12605 7.13125 9.0365 7.04171C8.94695 6.95216 8.89664 6.8307 8.89664 6.70406C8.89664 6.57742 8.94695 6.45597 9.0365 6.36642C9.12605 6.27687 9.2475 6.22656 9.37414 6.22656H10.3411C10.4678 6.22656 10.5892 6.27687 10.6788 6.36642C10.7683 6.45597 10.8186 6.57742 10.8186 6.70406C10.8186 6.8307 10.7683 6.95216 10.6788 7.04171C10.5892 7.13125 10.4668 7.18156 10.3401 7.18156ZM4.62614 7.18156H3.65914C3.5325 7.18156 3.41105 7.13125 3.3215 7.04171C3.23195 6.95216 3.18164 6.8307 3.18164 6.70406C3.18164 6.57742 3.23195 6.45597 3.3215 6.36642C3.41105 6.27687 3.5325 6.22656 3.65914 6.22656H4.62614C4.75278 6.22656 4.87424 6.27687 4.96378 6.36642C5.05333 6.45597 5.10364 6.57742 5.10364 6.70406C5.10364 6.8307 5.05333 6.95216 4.96378 7.04171C4.87424 7.13125 4.75278 7.18156 4.62614 7.18156ZM10.3471 8.77256H9.12714C9.0005 8.77256 8.87905 8.72225 8.7895 8.63271C8.69995 8.54316 8.64964 8.4217 8.64964 8.29506C8.64964 8.16842 8.69995 8.04697 8.7895 7.95742C8.87905 7.86787 9.0005 7.81756 9.12714 7.81756H10.3471C10.4738 7.81756 10.5952 7.86787 10.6848 7.95742C10.7743 8.04697 10.8246 8.16842 10.8246 8.29506C10.8246 8.4217 10.7743 8.54316 10.6848 8.63271C10.5952 8.72225 10.4738 8.77256 10.3471 8.77256ZM4.88014 8.77256H3.66014C3.5335 8.77256 3.41205 8.72225 3.3225 8.63271C3.23295 8.54316 3.18264 8.4217 3.18264 8.29506C3.18264 8.16842 3.23295 8.04697 3.3225 7.95742C3.41205 7.86787 3.5335 7.81756 3.66014 7.81756H4.88014C5.003 7.82319 5.11897 7.87595 5.20392 7.96488C5.28888 8.05382 5.33628 8.17207 5.33628 8.29506C5.33628 8.41805 5.28888 8.53631 5.20392 8.62524C5.11897 8.71417 5.003 8.76694 4.88014 8.77256Z" fill="#FAFAFA"/>
</g>
</g>
</g>
<defs>
<clipPath id="clip0_1_10145">
<rect width="14" height="14" fill="white" transform="translate(0 0.5)"/>
</clipPath>
<clipPath id="clip1_1_10145">
<rect width="14" height="14" fill="white" transform="translate(0 0.5)"/>
</clipPath>
</defs>
</svg>
