<svg width="26" height="26" viewBox="0 0 26 26" fill="none" xmlns="http://www.w3.org/2000/svg">
<path d="M18.1796 23.6483C20.073 23.6483 21.3247 23.1366 22.4343 21.8961C22.5216 21.8092 22.5977 21.7113 22.685 21.624C23.3378 20.8951 23.6424 20.1768 23.6424 19.4915C23.6424 18.7078 23.1855 17.9789 22.217 17.3038L19.0506 15.1059C18.071 14.4313 16.9283 14.3551 16.0142 15.2582L15.1766 16.0962C14.9259 16.3465 14.7086 16.3576 14.4583 16.2049C13.8817 15.8348 12.6955 14.8013 11.8899 13.9962C11.0412 13.1582 10.2143 12.2227 9.78995 11.5369C9.63767 11.2862 9.65949 11.0796 9.90974 10.8294L10.7366 9.99132C11.6508 9.0776 11.5747 7.92385 10.9001 6.95582L8.69099 3.78939C8.02706 2.82042 7.29813 2.37424 6.51442 2.36357C5.82913 2.35242 5.11088 2.66814 4.38195 3.32092C4.28399 3.40821 4.1967 3.48435 4.09874 3.56049C2.86931 4.67014 2.35767 5.92185 2.35767 7.80407C2.35767 10.9166 4.27284 14.7034 7.78795 18.218C11.2808 21.7113 15.0786 23.6483 18.1796 23.6483ZM18.1907 21.9722C15.4157 22.0265 11.8579 19.8941 9.0392 17.0865C6.19917 14.2572 3.96827 10.5791 4.02259 7.80453C4.04442 6.60714 4.45809 5.57364 5.31795 4.83357C5.38295 4.76857 5.44795 4.71378 5.52409 4.65946C5.83981 4.37624 6.19917 4.22442 6.50374 4.22442C6.83013 4.22442 7.11288 4.34374 7.31995 4.67014L9.43106 7.83657C9.65949 8.1741 9.68131 8.55528 9.34377 8.89235L8.38642 9.85017C7.62452 10.6009 7.68999 11.5151 8.23413 12.244C8.85395 13.0821 9.93156 14.3008 10.7585 15.1277C11.5965 15.9657 12.9127 17.1409 13.7508 17.7718C14.4797 18.316 15.405 18.3707 16.1558 17.6195L17.1131 16.6622C17.4507 16.3246 17.8207 16.3465 18.1578 16.5642L21.3242 18.6753C21.6511 18.8926 21.7815 19.1647 21.7815 19.4915C21.7815 19.8072 21.6292 20.1555 21.3358 20.4814C21.2846 20.553 21.2301 20.6221 21.1724 20.6885C20.4216 21.5372 19.3877 21.9504 18.1907 21.9722Z" fill="#1AA6E8"/>
</svg>
