<svg width="26" height="26" viewBox="0 0 26 26" fill="none" xmlns="http://www.w3.org/2000/svg">
<path d="M5.68758 4.33398H20.3126C21.2119 4.33393 22.0771 4.678 22.7308 5.29563C23.3845 5.91326 23.7771 6.75761 23.828 7.65548L23.8334 7.85482V18.1465C23.8335 19.0458 23.4894 19.911 22.8718 20.5647C22.2541 21.2184 21.4098 21.611 20.5119 21.6619L20.3126 21.6673H5.68758C4.78827 21.6674 3.92302 21.3233 3.26933 20.7057C2.61565 20.088 2.22308 19.2437 2.17216 18.3458L2.16675 18.1465V7.85482C2.16669 6.9555 2.51076 6.09025 3.12839 5.43657C3.74602 4.78288 4.59037 4.39032 5.48825 4.3394L5.68758 4.33398ZM22.2084 10.1547L13.3792 14.8022C13.2796 14.8549 13.17 14.8862 13.0575 14.8943C12.9451 14.9023 12.8322 14.8868 12.726 14.8488L12.622 14.8033L3.79175 10.1558V18.1465C3.79177 18.6223 3.97068 19.0807 4.29298 19.4307C4.61529 19.7807 5.05741 19.9967 5.53158 20.0358L5.68758 20.0423H20.3126C20.7885 20.0423 21.2471 19.8632 21.5971 19.5407C21.9471 19.2182 22.163 18.7758 22.2019 18.3014L22.2084 18.1465V10.1547ZM20.3126 5.95898H5.68758C5.21179 5.959 4.7534 6.13792 4.40341 6.46022C4.05341 6.78252 3.8374 7.22464 3.79825 7.69882L3.79175 7.85482V8.31957L13.0001 13.1664L22.2084 8.31848V7.85482C22.2084 7.37886 22.0293 6.92032 21.7068 6.5703C21.3843 6.22028 20.9419 6.00438 20.4675 5.96548L20.3126 5.95898Z" fill="#1AA6E8"/>
</svg>
