<svg width="23" height="23" viewBox="0 0 23 23" fill="none" xmlns="http://www.w3.org/2000/svg">
<path d="M22.5028 20.95L17.0288 15.256C18.4369 13.5855 19.2088 11.4708 19.2078 9.286C19.2078 4.166 15.0418 0 9.92177 0C4.80177 0 0.634766 4.166 0.634766 9.286C0.634766 14.406 4.80077 18.573 9.92177 18.573C11.8263 18.5778 13.6854 17.9907 15.2418 16.893L20.7568 22.629C20.9868 22.868 21.2978 23 21.6298 23C21.8668 22.999 22.0983 22.9286 22.2958 22.7975C22.4933 22.6664 22.648 22.4803 22.7408 22.2623C22.8337 22.0442 22.8607 21.8037 22.8183 21.5705C22.776 21.3373 22.6663 21.1216 22.5028 20.95ZM9.92177 2.422C11.7413 2.42412 13.4857 3.14786 14.7723 4.43446C16.0589 5.72107 16.7826 7.46547 16.7848 9.285C16.7829 11.1047 16.0593 12.8494 14.7727 14.1362C13.486 15.423 11.7415 16.1469 9.92177 16.149C8.10206 16.1471 6.3574 15.4235 5.07058 14.1369C3.78376 12.8503 3.05988 11.1057 3.05777 9.286C3.05962 7.46612 3.78338 5.72131 5.07023 4.43447C6.35708 3.14762 8.10189 2.42385 9.92177 2.422Z" fill="white"/>
</svg>
