<svg width="24" height="23" viewBox="0 0 24 23" fill="none" xmlns="http://www.w3.org/2000/svg">
<g clip-path="url(#clip0_1_10602)">
<path fill-rule="evenodd" clip-rule="evenodd" d="M9.21558 4.81062H21.9826L14.3986 10.0106L9.24258 6.47262C9.44442 5.93493 9.43513 5.34074 9.21658 4.80962L9.21558 4.81062ZM5.87558 7.82862L7.73758 6.69462C8.00293 6.53248 8.19448 6.27315 8.27144 5.97186C8.34839 5.67057 8.30467 5.35114 8.14958 5.08162L6.46958 2.17162C6.38927 2.02753 6.27897 1.90235 6.14613 1.80453C6.0133 1.70672 5.86102 1.63854 5.69958 1.60462C5.53945 1.56586 5.37287 1.56188 5.21107 1.59293C5.04926 1.62398 4.89599 1.68934 4.76158 1.78462L1.69658 3.89562C0.23858 9.03462 6.79258 20.1606 11.8196 21.4286L15.1796 19.8286C15.3293 19.7602 15.4626 19.6604 15.5704 19.536C15.6782 19.4116 15.7581 19.2655 15.8046 19.1076C15.9076 18.7776 15.8716 18.4566 15.6986 18.1576L14.0186 15.2476C13.8628 14.9785 13.608 14.7808 13.3086 14.6967C13.0091 14.6127 12.6887 14.6489 12.4156 14.7976L10.5026 15.8426C8.61258 14.1616 6.38658 10.3066 5.87558 7.82862ZM22.9106 5.47862L14.7036 11.1066C14.6122 11.169 14.5039 11.2016 14.3933 11.2002C14.2827 11.1988 14.1753 11.1633 14.0856 11.0986L8.63658 7.36362C8.53166 7.45798 8.41817 7.54234 8.29758 7.61562L7.12058 8.33262C7.73958 10.3286 9.26958 12.9786 10.6886 14.5126L11.8986 13.8516C12.4189 13.568 13.0294 13.4989 13.5999 13.659C14.1704 13.8191 14.6558 14.1957 14.9526 14.7086L15.9946 16.5126H22.0646C22.5426 16.5126 22.9346 16.1206 22.9346 15.6426V5.68262C22.9346 5.61424 22.9266 5.5451 22.9106 5.47862Z" fill="white"/>
</g>
<defs>
<clipPath id="clip0_1_10602">
<rect width="23" height="23" fill="white" transform="translate(0.712402)"/>
</clipPath>
</defs>
</svg>
