<svg width="23" height="21" viewBox="0 0 23 21" fill="none" xmlns="http://www.w3.org/2000/svg">
<mask id="mask0_1_10568" style="mask-type:luminance" maskUnits="userSpaceOnUse" x="0" y="0" width="23" height="21">
<path d="M0 0.703125H23V20.2957H0V0.703125Z" fill="white"/>
</mask>
<g mask="url(#mask0_1_10568)">
<mask id="mask1_1_10568" style="mask-type:luminance" maskUnits="userSpaceOnUse" x="-1" y="0" width="24" height="21">
<path d="M-0.0117188 0.693359H22.9942V20.2868H-0.0117188V0.693359Z" fill="white"/>
</mask>
<g mask="url(#mask1_1_10568)">
<path d="M8.68209 0.738169H16.4851C17.5541 0.738169 17.6436 0.955391 17.1529 1.82598C16.9306 2.26128 16.6179 2.60969 16.4399 3.00154C15.8606 4.1771 15.1025 4.74358 13.7651 4.65584C12.7838 4.56895 12.5606 4.9608 13.0512 5.7445C13.4082 6.31098 13.9431 6.87747 13.6305 7.57343C13.185 8.57521 12.7395 9.61958 11.8476 10.4476C11.4906 10.882 11.1789 10.4476 10.9557 10.0983C10.0638 8.6621 9.1719 7.22502 8.45975 5.74535C8.01338 4.87391 7.47842 4.5698 6.54223 4.61239C5.65035 4.70013 4.75846 4.61239 3.95601 4.61239C2.48486 4.74358 1.86046 3.82869 0.92342 2.87121C0.746235 2.65313 -0.234246 1.43413 0.0332352 0.998836C0.255569 0.56354 0.924272 0.780762 1.36979 0.780762H8.63694" fill="white"/>
<path d="M5.33757 5.35214C6.67498 5.52677 7.38883 5.7014 8.10183 7.00729C9.79702 10.0544 11.6694 13.1023 13.4523 16.0633C13.8092 16.6298 13.8978 17.152 13.4523 17.675L12.4718 19.5908C11.8926 20.5483 11.5799 20.5483 10.9555 19.5908L7.12135 13.3638L3.55465 7.09417C3.24202 6.65888 2.66276 6.22358 3.01968 5.6571C3.37576 5.13492 5.24898 5.35214 5.24898 5.35214H5.33757ZM20.3634 5.91862C20.2739 6.0924 20.2288 6.35306 20.0951 6.48425L15.1458 14.8443C14.6117 15.7149 14.3442 15.7149 13.8084 14.8443C11.8474 11.4914 11.8023 12.5367 13.6303 9.61906C14.2991 8.48695 14.9678 7.44258 15.5479 6.26703C15.8596 5.70054 16.306 5.39558 17.019 5.39558H19.6052C19.9613 5.39558 20.2739 5.48332 20.3634 5.96206M20.9426 0.736804C23.3951 0.736804 23.3951 0.736804 22.2801 2.69606C21.2101 4.61273 20.0508 5.13492 17.6434 4.61273C17.1085 4.48154 16.841 4.17658 17.1085 3.74129C17.6434 2.7838 17.8666 1.56395 18.8028 1.04091C19.6052 0.60647 20.3191 0.823693 21.0321 0.693359" fill="white"/>
</g>
</g>
</svg>
