<svg width="24" height="23" viewBox="0 0 24 23" fill="none" xmlns="http://www.w3.org/2000/svg">
<g clip-path="url(#clip0_1_10594)">
<path fill-rule="evenodd" clip-rule="evenodd" d="M18.5886 13.6921H13.5506C13.9666 12.4441 14.1876 11.3951 14.2236 10.4991C14.3096 8.38806 13.3126 7.55206 12.4606 7.22206C12.4251 7.20798 12.3882 7.19792 12.3506 7.19206C11.6906 7.08806 11.4556 7.39806 11.3006 7.74906L11.2796 7.79506C11.2567 7.84579 11.2418 7.89977 11.2356 7.95506C11.0247 9.75622 10.2554 11.4462 9.03556 12.7881V22.8531C9.17156 22.9031 9.31056 22.9441 9.45156 22.9771C9.48989 22.9863 9.52913 22.9914 9.56856 22.9921C9.98956 22.9961 10.4926 22.9991 11.0726 22.9991C11.6506 22.9991 12.3056 22.9961 13.0326 22.9921H17.7776C18.055 22.992 18.3274 22.9182 18.567 22.7783C18.8066 22.6385 19.0047 22.4375 19.1412 22.1959C19.2777 21.9544 19.3476 21.681 19.3438 21.4036C19.34 21.1262 19.2626 20.8548 19.1196 20.6171C19.4367 20.3772 19.6505 20.0255 19.7176 19.6335C19.7847 19.2415 19.6999 18.8388 19.4806 18.5071C19.7877 18.2464 19.9825 17.8773 20.0244 17.4767C20.0663 17.076 19.9521 16.6746 19.7056 16.3561C19.922 16.136 20.0685 15.8569 20.1268 15.5538C20.1851 15.2507 20.1525 14.9372 20.0332 14.6525C19.9138 14.3679 19.713 14.1249 19.456 13.954C19.199 13.7831 18.8972 13.692 18.5886 13.6921ZM7.98156 4.65606C7.94962 4.55801 7.89026 4.47115 7.81052 4.40576C7.73077 4.34037 7.63397 4.29918 7.53156 4.28706L6.05956 4.11706L5.44356 2.77106C5.40056 2.67724 5.33153 2.59773 5.24467 2.54199C5.15781 2.48624 5.05677 2.45661 4.95356 2.45661C4.85035 2.45661 4.74931 2.48624 4.66245 2.54199C4.57559 2.59773 4.50656 2.67724 4.46356 2.77106L3.84756 4.11906L2.37656 4.28806C2.27404 4.30017 2.17715 4.34141 2.09735 4.40689C2.01755 4.47238 1.95819 4.55936 1.92631 4.65754C1.89442 4.75572 1.89135 4.86098 1.91744 4.96086C1.94354 5.06073 1.99772 5.15103 2.07356 5.22106L3.16356 6.22306L2.87056 7.67406C2.85038 7.77525 2.85961 7.88009 2.89716 7.97619C2.9347 8.07229 2.99899 8.15562 3.08242 8.21632C3.16585 8.27703 3.26492 8.31256 3.36791 8.31871C3.4709 8.32487 3.5735 8.30139 3.66356 8.25106L4.95356 7.52306L6.24356 8.25106C6.33358 8.30185 6.4363 8.32568 6.53948 8.31972C6.64266 8.31376 6.74195 8.27826 6.82552 8.21745C6.90909 8.15664 6.97342 8.07309 7.01084 7.97675C7.04825 7.88041 7.05718 7.77534 7.03656 7.67406L6.74356 6.22306L7.83356 5.22106C7.90972 5.15115 7.96417 5.06081 7.99041 4.9608C8.01665 4.8608 8.01358 4.75437 7.98156 4.65606ZM22.0256 4.65606C22.0578 4.75426 22.0611 4.85967 22.035 4.95969C22.009 5.05971 21.9547 5.15011 21.8786 5.22006L20.7876 6.22206L21.0806 7.67306C21.1012 7.77434 21.0923 7.87941 21.0548 7.97575C21.0174 8.07209 20.9531 8.15565 20.8695 8.21645C20.7859 8.27726 20.6867 8.31276 20.5835 8.31872C20.4803 8.32468 20.3776 8.30085 20.2876 8.25006L18.9976 7.52206L17.7076 8.25006C17.6175 8.3004 17.5149 8.32387 17.4119 8.31771C17.3089 8.31156 17.2098 8.27602 17.1264 8.21532C17.043 8.15462 16.9787 8.07129 16.9412 7.97519C16.9036 7.87909 16.8944 7.77425 16.9146 7.67306L17.2086 6.22206L16.1186 5.22006C16.0423 5.15028 15.9878 5.06006 15.9614 4.96014C15.935 4.86022 15.9379 4.75483 15.9697 4.6565C16.0015 4.55818 16.0609 4.47108 16.1409 4.40558C16.2208 4.34008 16.3179 4.29894 16.4206 4.28706L17.8916 4.11706L18.5076 2.77106C18.5502 2.6769 18.6192 2.59703 18.7061 2.54101C18.793 2.48499 18.8942 2.4552 18.9976 2.4552C19.101 2.4552 19.2022 2.48499 19.2891 2.54101C19.376 2.59703 19.4449 2.6769 19.4876 2.77106L20.1036 4.11806L21.5746 4.28706C21.6773 4.29908 21.7744 4.34033 21.8543 4.40592C21.9343 4.47151 21.9937 4.55768 22.0256 4.65606ZM15.6046 2.63606C15.5726 2.53762 15.5132 2.45037 15.4333 2.38463C15.3534 2.31889 15.2563 2.2774 15.1536 2.26506L13.2586 2.04906L12.4656 0.313064C12.4223 0.219572 12.3531 0.14042 12.2663 0.0849475C12.1795 0.0294755 12.0786 0 11.9756 0C11.8725 0 11.7716 0.0294755 11.6848 0.0849475C11.598 0.14042 11.5289 0.219572 11.4856 0.313064L10.6926 2.04906L8.79756 2.26506C8.69504 2.27717 8.59815 2.31841 8.51835 2.38389C8.43855 2.44938 8.37919 2.53636 8.34731 2.63454C8.31542 2.73272 8.31235 2.83798 8.33844 2.93786C8.36454 3.03773 8.41872 3.12803 8.49456 3.19806L9.89956 4.48806L9.52156 6.35806C9.50186 6.4591 9.51144 6.56366 9.54918 6.65942C9.58692 6.75519 9.65125 6.83817 9.73458 6.8986C9.81792 6.95903 9.91679 6.99437 10.0195 7.00048C10.1223 7.00659 10.2247 6.98319 10.3146 6.93306L11.9756 5.99606L13.6356 6.93306C13.7256 6.98359 13.8282 7.00726 13.9312 7.00127C14.0343 6.99529 14.1334 6.95989 14.217 6.89928C14.3005 6.83867 14.365 6.75538 14.4026 6.65929C14.4403 6.56319 14.4497 6.45831 14.4296 6.35706L14.0516 4.48806L15.4556 3.19906C15.5317 3.12958 15.5863 3.03963 15.6127 2.93997C15.6391 2.84032 15.6363 2.73416 15.6046 2.63606ZM7.95756 13.7891C7.86253 13.6381 7.73077 13.5137 7.5746 13.4275C7.41843 13.3412 7.24295 13.296 7.06456 13.2961H3.34556C3.06566 13.2961 2.79722 13.4072 2.59921 13.605C2.4012 13.8028 2.28982 14.0712 2.28956 14.3511V21.9431C2.28982 22.2227 2.40089 22.4908 2.59844 22.6888C2.79599 22.8867 3.06392 22.9983 3.34356 22.9991H7.06556C7.24393 22.999 7.41938 22.9537 7.57553 22.8675C7.73169 22.7813 7.86346 22.657 7.95856 22.5061L7.95756 13.7891ZM3.65256 15.2761C3.65282 15.1332 3.7097 14.9962 3.81072 14.8952C3.91175 14.7942 4.04869 14.7373 4.19156 14.7371H4.58656C4.72384 14.7454 4.85275 14.8059 4.94699 14.906C5.04124 15.0062 5.09371 15.1385 5.09371 15.2761C5.09371 15.4136 5.04124 15.5459 4.94699 15.6461C4.85275 15.7463 4.72384 15.8067 4.58656 15.8151H4.19156C4.12069 15.8152 4.0505 15.8013 3.98499 15.7743C3.91948 15.7473 3.85994 15.7076 3.80978 15.6575C3.75963 15.6075 3.71983 15.548 3.69268 15.4826C3.66553 15.4171 3.65256 15.3469 3.65256 15.2761Z" fill="white"/>
</g>
<defs>
<clipPath id="clip0_1_10594">
<rect width="23" height="23" fill="white" transform="translate(0.475098)"/>
</clipPath>
</defs>
</svg>
