<svg width="24" height="23" viewBox="0 0 24 23" fill="none" xmlns="http://www.w3.org/2000/svg">
<g clip-path="url(#clip0_1_10610)">
<g clip-path="url(#clip1_1_10610)">
<path d="M12.4502 0C6.1002 0 0.950195 5.15 0.950195 11.5C0.950195 17.85 6.1002 23 12.4502 23C18.8002 23 23.9502 17.85 23.9502 11.5C23.9502 5.15 18.8002 0 12.4502 0ZM14.8432 17.823C14.3748 18.01 13.9027 18.1877 13.4272 18.356C13.0307 18.4855 12.6153 18.5477 12.1982 18.54C11.4822 18.54 10.9242 18.365 10.5272 18.015C10.3353 17.8516 10.1822 17.6474 10.0793 17.4173C9.97636 17.1872 9.9261 16.937 9.9322 16.685C9.9322 16.475 9.9472 16.261 9.9762 16.043C10.0062 15.825 10.0542 15.58 10.1192 15.304L10.8592 12.687C10.9252 12.437 10.9812 12.197 11.0262 11.976C11.0712 11.752 11.0922 11.546 11.0922 11.359C11.0922 11.026 11.0232 10.793 10.8862 10.661C10.7462 10.53 10.4852 10.466 10.0952 10.466C9.9042 10.466 9.7072 10.494 9.5052 10.553C9.3052 10.615 9.1332 10.67 8.9912 10.725L9.1862 9.918C9.6712 9.721 10.1362 9.551 10.5782 9.411C10.9833 9.27552 11.4071 9.204 11.8342 9.199C12.5462 9.199 13.0952 9.372 13.4812 9.715C13.8662 10.059 14.0602 10.505 14.0602 11.055C14.0602 11.169 14.0462 11.369 14.0202 11.655C13.9942 11.943 13.9442 12.205 13.8722 12.445L13.1352 15.054C13.0695 15.2899 13.0151 15.5289 12.9722 15.77C12.9324 15.9711 12.909 16.1751 12.9022 16.38C12.9022 16.727 12.9782 16.963 13.1342 17.089C13.2882 17.214 13.5572 17.278 13.9392 17.278C14.1192 17.278 14.3212 17.245 14.5492 17.183C14.7742 17.121 14.9382 17.065 15.0412 17.018L14.8442 17.823H14.8432ZM14.7132 7.233C14.378 7.5485 13.9325 7.7201 13.4722 7.711C12.9892 7.711 12.5722 7.551 12.2262 7.232C12.0613 7.08711 11.9295 6.90843 11.8398 6.70811C11.7501 6.50778 11.7045 6.29049 11.7062 6.071C11.7062 5.618 11.8822 5.229 12.2262 4.907C12.562 4.58855 13.0095 4.41474 13.4722 4.423C13.9562 4.423 14.3702 4.583 14.7132 4.907C15.0572 5.229 15.2292 5.618 15.2292 6.071C15.2292 6.526 15.0572 6.914 14.7132 7.233Z" fill="white"/>
</g>
</g>
<defs>
<clipPath id="clip0_1_10610">
<rect width="23" height="23" fill="white" transform="translate(0.950195)"/>
</clipPath>
<clipPath id="clip1_1_10610">
<rect width="23" height="23" fill="white" transform="translate(0.950195)"/>
</clipPath>
</defs>
</svg>
