<svg width="33" height="16" viewBox="0 0 33 16" fill="none" xmlns="http://www.w3.org/2000/svg">
<path d="M15.8297 7.15625H9.69385C9.38447 7.15625 9.17822 6.96875 9.17822 6.6875C9.17822 6.40625 9.38447 6.21875 9.69385 6.21875H15.8297C16.1391 6.21875 16.3454 6.40625 16.3454 6.6875C16.3454 6.96875 16.1391 7.15625 15.8297 7.15625Z" fill="#1AA6E8"/>
<path d="M4.12526 6.96848C4.07374 6.96848 4.02213 6.96847 3.97062 6.92156L2.16588 6.31222C1.75338 6.17156 1.39249 5.79656 1.34088 5.42156V5.37472L1.28937 4.81222C1.23776 4.39031 1.39249 4.01531 1.80499 3.73406L1.85651 3.68723C1.85651 3.64031 1.85651 3.59347 1.85651 3.59347L2.01124 2.98406C2.06276 2.46847 2.62999 2.04656 3.30026 2.04656H3.97062H4.07374C4.84713 1.71847 5.46588 1.48406 5.98151 1.24972C7.42526 0.593474 8.35338 0.218474 10.1065 0.124724C12.3237 -0.109693 13.3034 0.640308 15.005 1.90597L15.469 2.28098C15.5721 2.32781 15.5721 2.32781 15.5721 2.32781H15.6753C18.305 2.18723 20.5221 2.51531 22.3269 3.40597C22.7394 3.64031 22.9971 4.01531 22.9971 4.43722V5.74972C22.9971 6.40597 22.43 6.92156 21.7081 6.92156H21.3987C21.0894 6.92156 20.8831 6.73406 20.8831 6.45281C20.8831 6.17156 21.0894 5.98406 21.3987 5.98406H21.6565C21.8628 5.98406 21.9144 5.84347 21.9144 5.74972V4.43722C21.9144 4.39031 21.8628 4.29656 21.7596 4.24972C20.1096 3.45281 18.1503 3.12473 15.7269 3.26531C15.4175 3.31223 15.1081 3.26531 14.7987 3.03097L14.2831 2.65597C12.6846 1.43722 11.9628 0.921557 10.1581 1.10906C8.55964 1.15597 7.78624 1.53097 6.39401 2.14031C5.87839 2.37472 5.25963 2.65597 4.43463 2.93722C4.22838 3.03097 4.07374 3.03097 3.91901 3.03097H3.24874C3.14562 3.03097 2.99088 3.12472 2.99088 3.17156L2.83624 3.78097C2.83624 4.10906 2.62999 4.34347 2.37213 4.53097C2.32062 4.57781 2.26901 4.62472 2.26901 4.71847V4.76531L2.32062 5.28097C2.37213 5.37472 2.42374 5.46847 2.52687 5.46847L4.33151 6.07781C4.58937 6.17156 4.74401 6.45281 4.64088 6.68722C4.53776 6.87472 4.33151 6.96848 4.12526 6.96848Z" fill="#1AA6E8"/>
<path d="M18.5624 8.09375C17.3249 8.09375 16.3452 7.20317 16.3452 6.07817C16.3452 4.95317 17.3249 4.0625 18.5624 4.0625C19.7999 4.0625 20.7796 4.95317 20.7796 6.07817C20.7796 7.20317 19.7999 8.09375 18.5624 8.09375ZM18.5624 5C17.8921 5 17.3765 5.46875 17.3765 6.07817C17.3765 6.6875 17.8921 7.15625 18.5624 7.15625C19.2327 7.15625 19.7483 6.6875 19.7483 6.07817C19.7483 5.46875 19.2327 5 18.5624 5Z" fill="#1AA6E8"/>
<path d="M6.90937 8.09375C5.67187 8.09375 4.69214 7.20317 4.69214 6.07817C4.69214 4.95317 5.67187 4.0625 6.90937 4.0625C8.14687 4.0625 9.12651 4.95317 9.12651 6.07817C9.12651 7.20317 8.14687 8.09375 6.90937 8.09375ZM6.90937 5C6.23901 5 5.72339 5.46875 5.72339 6.07817C5.72339 6.6875 6.23901 7.15625 6.90937 7.15625C7.57964 7.15625 8.09526 6.6875 8.09526 6.07817C8.09526 5.46875 7.57964 5 6.90937 5Z" fill="#1AA6E8"/>
<path d="M22.1204 13.3906H12.375C12.0656 13.3906 11.8594 13.2031 11.8594 12.9218C11.8594 12.6405 12.0656 12.4531 12.375 12.4531H22.1204C22.4297 12.4531 22.636 12.6405 22.636 12.9218C22.636 13.2031 22.4297 13.3906 22.1204 13.3906Z" fill="#1AA6E8"/>
<path d="M3.76411 13.3906H2.01098C0.876562 13.3906 0 12.5468 0 11.5625V10.1093C0 9.07804 0.928125 8.23429 2.0625 8.23429H24.1829V2.14062C24.1829 1.10929 25.111 0.265625 26.2454 0.265625H28.6688C29.7 0.265625 30.5766 0.828126 30.989 1.67179L31.2984 2.32804L32.8453 5.74996C32.9485 5.89062 32.9484 6.07812 33 6.17187C33 6.21871 33 6.26554 33.0515 6.26554C33.0515 6.31246 33.1031 6.35929 33.1031 6.40621V11.4687C33.1031 12.5 32.2265 13.2968 31.0922 13.2968H30.7828C30.4735 13.2968 30.2671 13.1093 30.2671 12.828C30.2671 12.5468 30.4735 12.3593 30.7828 12.3593H31.0922C31.6079 12.3593 32.0719 11.9375 32.0719 11.4687V6.49996C32.0719 6.45304 32.0719 6.40621 32.0203 6.35929C32.0203 6.26554 31.9688 6.21871 31.9688 6.12496L30.1125 1.99996C29.8547 1.48437 29.3391 1.15621 28.7204 1.15621H26.2969C25.7297 1.15621 25.2656 1.57804 25.2656 2.09371V8.65621C25.2656 8.93746 25.0594 9.12496 24.75 9.12496H2.0625C1.49536 9.12496 1.03125 9.54688 1.03125 10.0625V11.5156C1.03125 11.9843 1.49536 12.4062 2.01098 12.4062H3.76411C4.07339 12.4062 4.27973 12.5937 4.27973 12.875C4.27973 13.1562 4.07339 13.3906 3.76411 13.3906Z" fill="#1AA6E8"/>
<path d="M30.8859 6.92188H27.8437C27.0187 6.92188 26.3484 6.31254 26.3484 5.56254V3.40629C26.3484 2.65629 27.0187 2.04688 27.8437 2.04688H29.1328C29.4421 2.04688 29.6484 2.23438 29.6484 2.51563C29.6484 2.79688 29.4421 2.98438 29.1328 2.98438H27.8437C27.5343 2.98438 27.3796 3.21879 27.3796 3.40629V5.56254C27.3796 5.84379 27.6374 5.98438 27.8437 5.98438H30.8859C31.1953 5.98438 31.4015 6.17188 31.4015 6.45313C31.4015 6.73438 31.1953 6.92188 30.8859 6.92188Z" fill="#1AA6E8"/>
<path d="M26.864 9.35938C26.5546 9.35938 26.3484 9.17188 26.3484 8.89063V8.04688C26.3484 7.76562 26.5546 7.57812 26.864 7.57812C27.1734 7.57812 27.3796 7.76562 27.3796 8.04688V8.89063C27.3796 9.17188 27.1734 9.35938 26.864 9.35938Z" fill="#1AA6E8"/>
<path d="M31.6596 10.9062H31.608C30.9377 10.9062 30.3189 10.6718 29.8548 10.25C29.4939 9.92183 29.3908 9.40625 29.5971 8.9375C29.8033 8.46875 30.3189 8.1875 30.8346 8.1875H31.6596C32.433 8.1875 33.0002 8.70308 33.0002 9.40625V9.6875C33.0002 10.3906 32.433 10.9062 31.6596 10.9062ZM30.8346 9.125C30.6798 9.125 30.5767 9.21875 30.5252 9.3125C30.4736 9.40625 30.4736 9.5 30.5767 9.59375C30.8346 9.82808 31.2471 9.96875 31.608 9.96875H31.6596C31.8142 9.96875 31.9689 9.82808 31.9689 9.6875V9.40625C31.9689 9.26558 31.8142 9.125 31.6596 9.125H30.8346Z" fill="#1AA6E8"/>
<path d="M26.4001 15.875C24.5954 15.875 23.1516 14.5625 23.1516 12.9219C23.1516 11.2813 24.5954 9.96875 26.4001 9.96875C28.2047 9.96875 29.6485 11.2813 29.6485 12.9219C29.6485 14.5625 28.2047 15.875 26.4001 15.875ZM26.4001 10.9063C25.2141 10.9063 24.1829 11.8438 24.1829 12.9219C24.1829 14 25.2141 14.9375 26.4001 14.9375C27.586 14.9375 28.6172 14 28.6172 12.9219C28.6172 11.75 27.6891 10.9063 26.4001 10.9063Z" fill="#1AA6E8"/>
<path d="M8.04389 15.875C6.23916 15.875 4.79541 14.5625 4.79541 12.9219C4.79541 11.2813 6.23916 9.96875 8.04389 9.96875C9.84853 9.96875 11.2923 11.2813 11.2923 12.9219C11.2923 14.5625 9.84853 15.875 8.04389 15.875ZM8.04389 10.9063C6.85791 10.9063 5.82666 11.8438 5.82666 12.9219C5.82666 14 6.85791 14.9375 8.04389 14.9375C9.22978 14.9375 10.261 14 10.261 12.9219C10.261 11.7969 9.28139 10.9063 8.04389 10.9063Z" fill="#1AA6E8"/>
</svg>
