<svg width="30" height="30" viewBox="0 0 30 30" fill="none" xmlns="http://www.w3.org/2000/svg">
<mask id="mask0_97_3302" style="mask-type:luminance" maskUnits="userSpaceOnUse" x="0" y="0" width="30" height="30">
<path d="M30 0H0V30H30V0Z" fill="white"/>
</mask>
<g mask="url(#mask0_97_3302)">
<path d="M28.3598 12.525L26.6011 11.1178C26.5941 11.1122 26.587 11.1052 26.58 11.0995L28.2173 10.7719C28.4362 10.7283 28.5938 10.5361 28.5938 10.3125V8.9062C28.5938 8.6475 28.3838 8.4375 28.125 8.4375H25.7812C25.5225 8.4375 25.3125 8.6475 25.3125 8.9062V9.7275C25.3017 9.713 25.2909 9.6984 25.2802 9.6839C25.2506 9.6023 25.1981 9.5358 25.1316 9.4828C24.8677 9.1092 24.6417 8.7352 24.4945 8.4117L23.7023 6.6694C23.1975 5.558 21.8456 4.6875 20.625 4.6875H9.375C8.1544 4.6875 6.8025 5.558 6.2977 6.6694L5.5059 8.4113C5.3588 8.7347 5.1328 9.1092 4.8689 9.4828C4.8023 9.5358 4.7503 9.6023 4.7203 9.6839C4.7095 9.6984 4.6992 9.7125 4.688 9.7275V8.9062C4.688 8.6475 4.478 8.4375 4.2192 8.4375H1.875C1.6163 8.4375 1.4062 8.6475 1.4062 8.9062V10.3125C1.4062 10.5361 1.5637 10.7283 1.7831 10.7719L3.4205 11.0995C3.4134 11.1052 3.4064 11.1122 3.3994 11.1178L1.6402 12.525C0.7205 13.2609 0 14.76 0 15.9375V23.9062C0 24.6816 0.6309 25.3125 1.4062 25.3125H5.1562C5.9316 25.3125 6.5625 24.6816 6.5625 23.9062V22.9688H23.4375V23.9062C23.4375 24.6816 24.0684 25.3125 24.8438 25.3125H28.5938C29.3691 25.3125 30 24.6816 30 23.9062V15.9375C30 14.76 29.2795 13.2609 28.3598 12.525ZM24.1003 22.0312L23.0255 20.9564C22.5694 20.5003 21.7388 20.1562 21.0938 20.1562H8.6719C8.0269 20.1562 7.1962 20.5003 6.7402 20.9564L5.6653 22.0312H2.3438C1.5684 22.0312 0.9375 21.4003 0.9375 20.625V18.2812H1.4062V18.75C1.4062 19.7841 2.2472 20.625 3.2812 20.625H4.6875C4.9462 20.625 5.1562 20.415 5.1562 20.1562C5.1562 19.8975 4.9462 19.6875 4.6875 19.6875H3.2812C2.7642 19.6875 2.3438 19.267 2.3438 18.75V18.2812H3.2812C3.6703 18.2812 4.275 18.5316 4.5502 18.8067C4.6416 18.8981 4.7616 18.9441 4.8816 18.9441C5.0016 18.9441 5.1216 18.8981 5.213 18.8067C5.3963 18.6234 5.3963 18.3272 5.213 18.1439C4.7569 17.6878 3.9267 17.3438 3.2812 17.3438H0.9375V15.9375C0.9375 15.772 0.9638 15.5934 1.0008 15.4111C1.3008 15.7242 1.7372 15.9375 2.3438 15.9375H6.0938C6.218 15.9375 6.337 15.8883 6.4252 15.8002L7.0312 15.1941L7.6373 15.8002C7.725 15.8883 7.8445 15.9375 7.9688 15.9375H13.3997L14.6686 17.2064C14.76 17.2978 14.88 17.3438 15 17.3438C15.12 17.3438 15.24 17.2978 15.3314 17.2064L16.6003 15.9375H22.0312C22.1555 15.9375 22.275 15.8883 22.3627 15.8002L22.9688 15.1941L23.5748 15.8002C23.6625 15.8883 23.782 15.9375 23.9062 15.9375H27.6562C28.2628 15.9375 28.6992 15.7242 28.9992 15.4111C29.0363 15.5934 29.0625 15.772 29.0625 15.9375V17.3438H26.7188C26.0737 17.3438 25.2431 17.6878 24.787 18.1439C24.6038 18.3272 24.6038 18.6234 24.787 18.8067C24.8784 18.8981 24.9984 18.9441 25.1184 18.9441C25.2384 18.9441 25.3584 18.8981 25.4498 18.8067C25.725 18.5316 26.3297 18.2812 26.7188 18.2812H27.6562V18.75C27.6562 19.267 27.2358 19.6875 26.7188 19.6875H25.3125C25.0537 19.6875 24.8438 19.8975 24.8438 20.1562C24.8438 20.415 25.0537 20.625 25.3125 20.625H26.7188C27.7528 20.625 28.5938 19.7841 28.5938 18.75V18.2812H29.0625V20.625C29.0625 21.4003 28.4316 22.0312 27.6562 22.0312H24.1003ZM22.7747 22.0312H6.9909L7.403 21.6192C7.6781 21.3441 8.2828 21.0938 8.6719 21.0938H21.0938C21.4828 21.0938 22.0875 21.3441 22.3627 21.6192L22.7747 22.0312ZM5.4188 10.3125H24.5812C25.0355 10.913 25.5544 11.4811 26.0152 11.85L26.5791 12.3009L23.2636 13.627L23.2627 13.6275C23.2059 13.6505 23.1525 13.6847 23.1066 13.7306L22.6378 14.1994L21.8372 15H16.4062C16.282 15 16.1625 15.0492 16.0748 15.1373L15 16.2122L13.9252 15.1373C13.8375 15.0492 13.718 15 13.5938 15H8.1628L7.3627 14.1998L6.8939 13.7311C6.848 13.6852 6.7945 13.6509 6.7378 13.628L6.7369 13.6275L3.4214 12.3014L3.9853 11.8505C4.4456 11.4811 4.9645 10.913 5.4188 10.3125ZM28.5661 14.2589C28.4719 14.7488 28.1681 15 27.6562 15H24.1003L23.6316 14.5312L23.7009 14.4619L27.4205 12.9741L27.7739 13.2572C28.0711 13.4948 28.3453 13.8562 28.5661 14.2589ZM26.25 9.375H27.6562V9.9281L26.25 10.2094V9.375ZM6.3586 8.7994L7.1503 7.0575C7.5037 6.2808 8.5223 5.625 9.375 5.625H20.625C21.4777 5.625 22.4963 6.2808 22.8492 7.057L23.6414 8.7994C23.7239 8.9803 23.8312 9.1758 23.9489 9.375H6.0511C6.1688 9.1758 6.2766 8.9803 6.3586 8.7994ZM2.3438 9.375H3.75V10.2094L2.3438 9.9281V9.375ZM2.2256 13.2572L2.5791 12.9741L6.2991 14.4619L6.3684 14.5312L5.8997 15H2.3438C1.8319 15 1.5281 14.7488 1.4339 14.2589C1.6547 13.8562 1.9284 13.4948 2.2256 13.2572ZM5.1562 24.375H1.4062C1.148 24.375 0.9375 24.1645 0.9375 23.9062V22.4883C1.3303 22.7855 1.8141 22.9688 2.3438 22.9688H5.625V23.9062C5.625 24.1645 5.4145 24.375 5.1562 24.375ZM28.5938 24.375H24.8438C24.5855 24.375 24.375 24.1645 24.375 23.9062V22.9688H27.6562C28.1859 22.9688 28.6697 22.7855 29.0625 22.4883V23.9062C29.0625 24.1645 28.852 24.375 28.5938 24.375Z" fill="#1AA6E8"/>
</g>
</svg>
