<svg width="30" height="30" viewBox="0 0 30 30" fill="none" xmlns="http://www.w3.org/2000/svg">
<g clip-path="url(#clip0_97_3491)">
<g clip-path="url(#clip1_97_3491)">
<path d="M29.5007 23.291C29.7765 23.291 30 23.0943 30 22.8516V21.9812C30 21.3632 29.5201 20.8347 28.8332 20.6958C28.5574 20.6401 28.2918 20.5675 28.0359 20.4806V4.541C28.0359 3.9756 27.5132 3.5156 26.8707 3.5156H26.0384V2.7832C26.0384 2.2178 25.5157 1.7578 24.8732 1.7578H24.041V1.0254C24.041 0.46 23.5183 0 22.8758 0H5.16519C4.52271 0 4 0.46 4 1.0254V3.6621C4 3.9048 4.22351 4.1016 4.4993 4.1016C4.77509 4.1016 4.99871 3.9048 4.99871 3.6621V1.0254C4.99871 0.9446 5.07337 0.8789 5.16519 0.8789H22.8758C22.9675 0.8789 23.0423 0.9446 23.0423 1.0254V1.7578H7.16262C6.52014 1.7578 5.99743 2.2178 5.99743 2.7832V23.0273H5.16519C5.07337 23.0273 4.99871 22.9616 4.99871 22.8809V5.7129C4.99871 5.4702 4.77509 5.2734 4.4993 5.2734C4.22351 5.2734 4 5.4702 4 5.7129V22.8809C4 23.4462 4.52271 23.9062 5.16519 23.9062H5.99743V24.6387C5.99743 25.204 6.52014 25.6641 7.16262 25.6641H7.99486V26.3965C7.99486 26.9619 8.51757 27.4219 9.16005 27.4219H19.1733C20.1716 28.9605 22.054 30 24.2075 30C27.4015 30 30 27.7132 30 24.9023C30 24.6596 29.7765 24.4629 29.5007 24.4629C29.2249 24.4629 29.0013 24.6596 29.0013 24.9023C29.0013 27.2286 26.8508 29.1211 24.2075 29.1211C21.564 29.1211 19.4136 27.2286 19.4136 24.9023V21.9812C19.4136 21.7753 19.5746 21.5991 19.8052 21.5525C21.3411 21.2421 22.6332 20.5101 23.5418 19.4358C23.6999 19.249 23.9425 19.1419 24.2075 19.1419C24.4725 19.1419 24.7152 19.2491 24.8731 19.4358C25.7817 20.5101 27.0739 21.2421 28.6097 21.5525C28.8403 21.5991 29.0013 21.7754 29.0013 21.9812V22.8516C29.0013 23.0943 29.2249 23.291 29.5007 23.291ZM9.16005 26.543C9.06823 26.543 8.99358 26.4772 8.99358 26.3965V25.6641H18.4796C18.5313 25.9665 18.6132 26.2603 18.7227 26.543H9.16005ZM24.2075 18.263C23.6236 18.263 23.089 18.4992 22.7407 18.911C21.9756 19.8156 20.8832 20.4328 19.5817 20.6958C18.8947 20.8347 18.4148 21.3632 18.4148 21.9812V24.7852H7.16262C7.0708 24.7852 6.99615 24.7194 6.99615 24.6387V2.7832C6.99615 2.7025 7.0708 2.6367 7.16262 2.6367H24.8732C24.9651 2.6367 25.0397 2.7025 25.0397 2.7832V18.4376C24.7869 18.324 24.5035 18.263 24.2075 18.263ZM26.0384 19.2952V4.3945H26.8707C26.9625 4.3945 27.0372 4.4603 27.0372 4.541V20.0348C26.6702 19.826 26.336 19.578 26.0384 19.2952Z" fill="#1AA6E8"/>
<path d="M25.8471 23.0979L23.7385 25.4578L22.8223 24.5368C22.6511 24.3648 22.3728 24.3641 22.2008 24.5353C22.0287 24.7065 22.028 24.9847 22.1992 25.1568L23.4441 26.408C23.5267 26.4911 23.6389 26.5375 23.7557 26.5375C23.7596 26.5375 23.7635 26.5375 23.7674 26.5374C23.8884 26.5341 24.0027 26.4812 24.0834 26.3909L26.5025 23.6835C26.6643 23.5025 26.6486 23.2247 26.4676 23.063C26.2867 22.9013 26.0088 22.9168 25.8471 23.0979Z" fill="#1AA6E8"/>
</g>
</g>
<defs>
<clipPath id="clip0_97_3491">
<rect width="30" height="30" fill="white"/>
</clipPath>
<clipPath id="clip1_97_3491">
<rect width="54" height="54" fill="white" transform="translate(-12 -12)"/>
</clipPath>
</defs>
</svg>
