<svg width="20" height="26" viewBox="0 0 20 26" fill="none" xmlns="http://www.w3.org/2000/svg">
<path d="M10 1C5.03729 1 1 4.97704 1 9.86568C1 11.4751 1.7327 13.206 1.76339 13.279C2.00005 13.8323 2.46701 14.6918 2.80372 15.1956L8.97454 24.406C9.22702 24.7836 9.60084 25 10 25C10.3992 25 10.773 24.7836 11.0255 24.4065L17.1968 15.1956C17.5341 14.6918 18.0005 13.8323 18.2372 13.279C18.2679 13.2065 19 11.4756 19 9.86568C19 4.97704 14.9627 1 10 1ZM17.2609 12.8743C17.0497 13.3702 16.615 14.1698 16.3127 14.6214L10.1414 23.8323C10.0196 24.0143 9.98091 24.0143 9.85918 23.8323L3.68779 14.6214C3.38552 14.1698 2.95088 13.3698 2.73964 12.8738C2.73063 12.8524 2.05876 11.2592 2.05876 9.86568C2.05876 5.55232 5.62121 2.04304 10 2.04304C14.3788 2.04304 17.9412 5.55232 17.9412 9.86568C17.9412 11.2613 17.2678 12.8586 17.2609 12.8743Z" fill="#1AA6E8" stroke="#1AA6E8" stroke-width="0.4"/>
<path d="M10 6C7.79424 6 6 7.7947 6 9.99997C6 12.2053 7.79424 14 10 14C12.2058 14 14 12.2053 14 9.99997C14 7.7947 12.2058 6 10 6ZM10 13.1111C8.28485 13.1111 6.8889 11.7155 6.8889 9.99997C6.8889 8.28442 8.28485 6.8889 10 6.8889C11.7151 6.8889 13.1111 8.28442 13.1111 9.99997C13.1111 11.7155 11.7151 13.1111 10 13.1111Z" fill="#1AA6E8" stroke="#1AA6E8" stroke-width="0.4"/>
</svg>
