<svg width="30" height="32" viewBox="0 0 30 32" fill="none" xmlns="http://www.w3.org/2000/svg">
<g clip-path="url(#clip0_97_3490)">
<mask id="mask0_97_3490" style="mask-type:luminance" maskUnits="userSpaceOnUse" x="0" y="1" width="30" height="30">
<path d="M30 1H0V31H30V1Z" fill="white"/>
</mask>
<g mask="url(#mask0_97_3490)">
<path d="M23.8716 5.12836C19.7004 0.957212 12.9134 0.957212 8.74215 5.12836C4.81976 9.05084 4.6412 15.1344 7.85718 19.257L6.78618 20.3281C6.39027 20.2439 5.98887 20.3635 5.70564 20.6467L0.344509 26.0078C-0.114851 26.4672 -0.114851 27.2148 0.344599 27.6741L1.32587 28.6554C1.78541 29.115 2.53295 29.1148 2.99231 28.6554L4.35365 27.2942C4.50809 27.1396 4.50809 26.8892 4.35365 26.7347C4.19912 26.5803 3.94865 26.5803 3.79412 26.7347L2.43287 28.096C2.28194 28.2469 2.03624 28.2469 1.8854 28.096L0.904129 27.1147C0.753199 26.9638 0.753199 26.7182 0.904129 26.5672L4.86072 22.6105L6.38955 24.1394L5.10074 25.4282C4.94621 25.5826 4.94621 25.8332 5.10074 25.9876C5.25527 26.1421 5.50566 26.1422 5.66019 25.9876L8.35344 23.2944C8.64612 23.0017 8.75151 22.5922 8.67123 22.2146L9.74385 21.142C13.9386 24.4053 20.0205 24.1089 23.8718 20.2579C28.0428 16.0867 28.0428 9.2996 23.8716 5.12836ZM7.79382 22.7349L6.9489 23.5798L5.42007 22.0511L6.26499 21.2061C6.41745 21.0537 6.66216 21.0561 6.8121 21.2057L7.79382 22.1874C7.94034 22.3344 7.94871 22.5799 7.79382 22.7349ZM8.24616 21.5207L7.47927 20.7538L8.36829 19.8648C8.60742 20.1289 8.85969 20.3823 9.13527 20.6316L8.24616 21.5207ZM23.3121 19.6984C19.4169 23.5936 12.7622 23.7518 8.68734 19.0252C5.47578 15.1745 5.61033 9.37907 9.30159 5.6878C13.1641 1.82526 19.4494 1.82499 23.3121 5.6878C27.1749 9.55052 27.1749 15.8357 23.3121 19.6984Z" fill="#1AA6E8"/>
<path d="M6.8121 21.2057C6.66216 21.0561 6.41745 21.0537 6.26499 21.2061L5.42007 22.0511L6.9489 23.5798L7.79382 22.7349C7.94871 22.5799 7.94034 22.3344 7.79382 22.1874M6.8121 21.2057V21.2057ZM6.8121 21.2057L7.79382 22.1874M7.79382 22.1874V22.1874ZM23.8716 5.12836C19.7004 0.957212 12.9134 0.957212 8.74215 5.12836C4.81976 9.05084 4.6412 15.1344 7.85718 19.257L6.78618 20.3281C6.39027 20.2439 5.98887 20.3635 5.70564 20.6467L0.344509 26.0078C-0.114851 26.4672 -0.114851 27.2148 0.344599 27.6741L1.32587 28.6554C1.78541 29.115 2.53295 29.1148 2.99231 28.6554L4.35365 27.2942C4.50809 27.1396 4.50809 26.8892 4.35365 26.7347C4.19912 26.5803 3.94865 26.5803 3.79412 26.7347L2.43287 28.096C2.28194 28.2469 2.03624 28.2469 1.8854 28.096L0.904129 27.1147C0.753199 26.9638 0.753199 26.7182 0.904129 26.5672L4.86072 22.6105L6.38955 24.1394L5.10074 25.4282C4.94621 25.5826 4.94621 25.8332 5.10074 25.9876C5.25527 26.1421 5.50566 26.1422 5.66019 25.9876L8.35344 23.2944C8.64612 23.0017 8.75151 22.5922 8.67123 22.2146L9.74385 21.142C13.9386 24.4053 20.0205 24.1089 23.8718 20.2579C28.0428 16.0867 28.0428 9.2996 23.8716 5.12836ZM8.24616 21.5207L7.47927 20.7538L8.36829 19.8648C8.60742 20.1289 8.85969 20.3823 9.13527 20.6316L8.24616 21.5207ZM23.3121 19.6984C19.4169 23.5936 12.7622 23.7518 8.68734 19.0252C5.47578 15.1745 5.61033 9.37907 9.30159 5.6878C13.1641 1.82526 19.4494 1.82499 23.3121 5.6878C27.1749 9.55052 27.1749 15.8357 23.3121 19.6984Z" stroke="#1AA6E8" stroke-width="0.6"/>
</g>
</g>
<defs>
<clipPath id="clip0_97_3490">
<rect width="30" height="32" fill="white"/>
</clipPath>
</defs>
</svg>
