<svg width="30" height="30" viewBox="0 0 30 30" fill="none" xmlns="http://www.w3.org/2000/svg">
<rect width="29.2857" height="30" fill="white"/>
<path d="M25.9147 5.74862C25.8881 5.4897 25.6836 5.28506 25.4248 5.25829C19.089 4.60436 14.8939 1.16209 14.8526 1.12782C14.649 0.957457 14.3525 0.957456 14.1486 1.12744C14.107 1.16222 9.91171 4.60436 3.57591 5.25829C3.31713 5.28506 3.11262 5.4897 3.08599 5.74862C3.07549 5.85043 2.83359 8.28154 3.21088 11.6011C3.56053 14.676 4.53487 19.1104 7.1906 22.7731C7.29799 22.9213 7.46562 23 7.63551 23C7.74727 23 7.86016 22.9659 7.95754 22.8952C8.20306 22.7169 8.25769 22.3733 8.07955 22.1277C5.56958 18.666 4.64163 14.4395 4.30522 11.5033C4.02945 9.09583 4.09495 7.13653 4.14583 6.29936C9.58331 5.62291 13.3628 3.09412 14.5002 2.24556C15.6378 3.09424 19.4169 5.62316 24.8552 6.29936C24.8928 6.91126 24.9382 8.12281 24.851 9.67346C24.834 9.97653 25.0658 10.2358 25.3686 10.2528C25.6722 10.2694 25.9307 10.0383 25.9478 9.73525C26.0794 7.3907 25.9216 5.81466 25.9147 5.74862Z" fill="#1AA6E8" stroke="#1AA6E8" stroke-width="0.6"/>
<path d="M25.4984 12.0042C25.1844 11.9682 24.8971 12.1693 24.8575 12.4534C23.5807 21.5738 18.4356 25.3563 14.255 26.9218C12.2347 26.166 10.463 25.0813 8.98655 23.6956C8.76695 23.4894 8.40374 23.4832 8.17565 23.6819C7.94757 23.8807 7.94065 24.209 8.16051 24.4152C9.80267 25.9562 11.7818 27.15 14.0432 27.9633C14.1113 27.9877 14.1832 28 14.2551 28C14.3272 28 14.399 27.9877 14.4671 27.9633C18.1649 26.6334 21.059 24.3178 23.0688 21.0811C24.557 18.6847 25.5416 15.8258 25.9954 12.5836C26.0352 12.2996 25.8125 12.0401 25.4984 12.0042Z" fill="#1AA6E8" stroke="#1AA6E8" stroke-width="0.6"/>
<path d="M10.5 13.5L13.4132 17.033C13.8216 17.5283 14.5841 17.516 14.9763 17.0079L20 10.5" stroke="#1AA6E8" stroke-width="2" stroke-linecap="round"/>
</svg>
