<svg width="35" height="30" viewBox="0 0 35 30" fill="none" xmlns="http://www.w3.org/2000/svg">
<g clip-path="url(#clip0_97_3539)">
<path d="M33.0479 10.1711C32.5284 9.91216 31.98 9.32946 32.3522 7.10316C32.5235 6.07886 32.474 5.37916 32.1966 4.90106C31.9212 4.42646 31.4875 4.25856 31.105 4.11036C31.0528 4.09016 31.0001 4.06976 30.9475 4.04836L30.943 4.04646C30.9166 3.98226 30.9279 3.77716 30.9347 3.65266C30.9605 3.18156 31.0142 2.20206 29.7253 2.02896C29.0999 1.94506 28.6768 2.04306 28.4309 2.32856C28.0979 2.71526 28.2508 3.24266 28.352 3.59146C28.3761 3.66716 28.3958 3.74425 28.4109 3.82225C28.4221 3.91135 28.3974 3.96995 28.3244 4.12755C28.1766 4.41365 28.0996 4.73096 28.0998 5.05296C28.0998 5.48416 28.0603 5.62476 27.1036 6.29806C26.8442 6.46926 26.57 6.61666 26.2841 6.73846C25.5937 7.05716 24.8114 7.41836 24.688 8.55006C24.6054 9.30856 24.1748 9.90376 23.9684 10.0193C23.9649 10.0123 23.9614 10.0039 23.9571 9.99436C23.8227 9.67496 23.6125 9.46005 23.3321 9.35585C22.7625 9.14426 22.1183 9.46365 21.4956 9.77285C21.4156 9.81245 21.3364 9.85195 21.2583 9.88945C20.8898 10.0656 20.4947 10.1794 20.089 10.2265C20.1305 10.1692 20.176 10.1105 20.221 10.0526C20.4727 9.72816 20.8532 9.23796 20.4968 8.74056C20.1285 8.22666 19.6936 8.42056 19.4057 8.54886C19.1711 8.66016 18.924 8.74326 18.6698 8.79626C18.0122 8.93116 17.733 9.27956 17.5292 9.53396C17.3712 9.73126 17.3211 9.77906 17.1917 9.79516C16.4478 9.88796 16.4788 10.6389 16.4935 10.9998C16.4993 11.1367 16.511 11.4216 16.4624 11.4761C16.1402 11.7111 15.824 12.1578 15.8436 12.6259C15.8449 12.6566 15.8387 12.6871 15.8255 12.7148C15.8122 12.7425 15.7925 12.7666 15.7678 12.7849C15.748 12.8008 15.7245 12.8114 15.6995 12.8158C15.6745 12.8201 15.6488 12.818 15.6248 12.8097C15.5415 12.7816 15.5383 12.7643 15.5383 12.6967C15.5359 12.5886 15.5397 12.4805 15.5496 12.3728L15.5682 12.3564C15.7474 12.1983 15.9025 12.015 16.0288 11.8122C16.6663 10.8406 16.0342 10.0396 16.007 10.006C15.9518 9.93796 15.8769 9.88886 15.7925 9.86536C15.241 9.71116 14.9221 10.186 14.6891 10.5327C14.4043 10.9568 14.1097 11.3953 13.4471 11.4667C12.5148 11.5671 12.4355 11.4838 12.3157 11.3576C12.1071 11.1266 11.843 10.9528 11.5484 10.8525C10.899 10.6097 9.81401 10.7986 8.76461 10.9813C8.25831 11.0694 7.50421 11.2007 7.28231 11.1566C7.27191 11.0907 7.27931 10.918 7.39361 10.606C7.83411 10.8445 8.30111 10.8586 8.70681 10.6452C9.09551 10.4408 9.29841 10.0273 9.24971 9.53916C9.18731 8.91295 8.68021 8.14886 7.83271 7.90036C7.09381 7.68396 6.64031 8.26136 6.23981 8.77086C5.77481 9.36226 5.24781 10.0328 4.15431 10.2096C3.77661 10.2646 3.41501 10.3991 3.09321 10.6043C2.77141 10.8095 2.49691 11.0807 2.28781 11.3999C1.91071 11.9565 1.67101 12.7027 1.59481 13.558C1.53301 14.2629 1.57741 14.9731 1.72661 15.6648C1.89341 16.4128 1.76731 16.6822 1.72471 16.7469C1.71081 16.771 1.69021 16.7906 1.66541 16.8031C1.42821 16.7908 0.611614 16.7926 0.208474 17.3478C-0.0620162 17.7204 -0.0693262 18.2136 0.186754 18.8142C1.48461 21.8573 2.11741 22.412 2.56511 22.5531C2.66581 22.5865 2.77261 22.5973 2.87801 22.5849C2.98341 22.5724 3.08471 22.537 3.17491 22.481C3.47171 22.296 3.61481 21.8596 3.85171 21.1365C4.14981 20.2267 4.60031 18.8518 5.35131 18.6301C5.72011 18.5211 6.19181 18.6897 6.75341 19.1313C7.20891 19.8414 7.86092 20.6324 8.45662 20.5193C8.92262 20.4308 9.08071 19.9996 9.18531 19.7142C9.25001 19.5377 9.31702 19.3556 9.41092 19.3105C9.57992 19.2264 9.73801 19.1219 9.88161 18.9994C9.92431 18.9634 9.96891 18.9298 10.0152 18.8988C10.0457 18.9101 10.0748 18.9246 10.1021 18.9421C10.1579 18.976 10.209 19.0077 10.2568 19.0373C10.6906 19.3059 10.9318 19.4388 11.6701 19.5229C11.7852 19.5361 11.8235 19.5819 11.9437 19.8499C12.0625 20.1148 12.3093 20.666 13.0136 20.5421C13.3878 20.4763 13.4816 20.5843 13.8402 21.2206L13.9056 21.3362C14.4424 22.2805 15.3249 22.7565 16.5352 22.7565C16.7922 22.7555 17.0488 22.7362 17.3031 22.699C18.3994 22.5427 18.8093 22.2686 19.0539 22.1048C19.0916 22.0777 19.1312 22.0533 19.1725 22.0321C19.2196 22.0321 19.2663 22.0403 19.3105 22.0565C19.764 22.1835 20.121 21.9962 20.408 21.8455C20.7402 21.6712 20.9232 21.5753 21.2782 21.7924C21.9707 22.216 22.4496 22.03 22.8344 21.8804C23.1146 21.7716 23.3568 21.6776 23.7542 21.7766C24.5118 21.9655 24.8498 21.7652 25.2126 21.4837C25.4544 21.2729 25.7559 21.1425 26.0752 21.1106C27.0553 20.9758 27.0778 20.0927 27.0911 19.5651C27.1083 18.8873 27.177 18.8506 27.4124 18.8274C27.9261 18.7771 28.0074 18.8902 28.155 19.0956C28.3093 19.3103 28.5426 19.6347 29.1179 19.6347C29.3555 19.6347 30.0786 19.6347 30.33 19.9223C30.3646 19.9619 30.4699 20.0825 30.4245 20.4185C30.3581 20.9107 30.4165 21.3281 30.5979 21.6596C30.6895 21.825 30.828 21.9595 30.9959 22.0462C31.1639 22.1329 31.3537 22.168 31.5416 22.1469C31.7294 22.1259 31.9068 22.0496 32.0514 21.9279C32.1959 21.8061 32.3012 21.6443 32.3539 21.4628C33.0909 18.9132 32.685 17.9217 32.2923 16.9628C32.1618 16.666 32.0551 16.3593 31.9733 16.0456C31.8268 15.4357 31.7208 14.995 31.0216 15.1392C30.8169 15.1858 30.6061 15.1995 30.3971 15.1796C30.3689 15.1798 30.341 15.1729 30.3161 15.1595C30.2911 15.1462 30.2699 15.1268 30.2544 15.1032C30.0523 14.8213 30.1309 13.9955 30.2474 13.5261C30.2686 13.4616 30.2692 13.392 30.2492 13.3271C30.2425 13.27 30.2152 12.8765 30.6047 12.2021C30.9065 11.6797 30.9385 11.0696 30.9619 10.6242C30.9623 10.6167 30.9627 10.6091 30.9631 10.6013C31.0949 10.7858 31.2126 10.98 31.3152 11.1822C31.5043 11.5458 31.7209 11.8946 31.9631 12.2252C32.4693 12.8983 33.2611 13.5834 33.8879 13.5963C33.9931 13.6018 34.0982 13.5828 34.195 13.5409C34.2917 13.499 34.3774 13.4353 34.4454 13.3547C34.6027 13.163 34.6352 12.8825 34.5475 12.472C34.3931 11.75 33.8259 10.5587 33.0479 10.1711ZM32.6371 11.7179C32.4199 11.4197 32.2255 11.1055 32.0557 10.7779C31.7868 10.2853 31.5546 9.85986 31.0875 9.61586C30.8084 9.47026 30.6007 9.52496 30.4757 9.59636C30.1626 9.77506 30.143 10.1482 30.1202 10.5801C30.1003 10.9602 30.0755 11.4333 29.8751 11.7803C29.401 12.601 29.3834 13.161 29.4095 13.4065C29.3216 13.7932 29.1106 14.9539 29.5688 15.5942C29.6554 15.7175 29.7686 15.8199 29.9 15.8937C30.0315 15.9675 30.1778 16.0109 30.3282 16.0207C30.5824 16.0443 30.8387 16.0327 31.0897 15.9863C31.113 16.0732 31.1372 16.1741 31.1538 16.2429C31.2453 16.5985 31.3652 16.9463 31.5124 17.2827C31.8658 18.146 32.1998 18.9612 31.5442 21.2286C31.5385 21.2506 31.526 21.2702 31.5085 21.2846C31.4909 21.299 31.4693 21.3075 31.4466 21.3088C31.4252 21.3126 31.4032 21.3094 31.3838 21.2996C31.3643 21.2898 31.3486 21.274 31.339 21.2546C31.2471 21.0867 31.2204 20.8367 31.2616 20.5315C31.3258 20.0565 31.2265 19.6647 30.9663 19.367C30.52 18.8564 29.7446 18.7909 29.1189 18.7909C28.9762 18.7909 28.9608 18.7699 28.8411 18.6031C28.5818 18.2422 28.2513 17.8974 27.3312 17.9878C26.2856 18.0903 26.2624 19.0003 26.2487 19.5437C26.2319 20.206 26.1662 20.2468 25.9613 20.275C25.4953 20.3265 25.0551 20.5152 24.6966 20.8172C24.4661 20.9961 24.3801 21.0633 23.9593 20.9578C23.3018 20.794 22.8558 20.9673 22.5299 21.0939C22.204 21.2205 22.0557 21.2781 21.7196 21.0728C20.9561 20.6059 20.391 20.9024 20.017 21.0985C19.7703 21.228 19.6584 21.2776 19.5393 21.2441C19.073 21.1134 18.8409 21.2332 18.586 21.4036C18.3891 21.5354 18.0909 21.7346 17.1849 21.8637C15.3268 22.1289 14.8098 21.2186 14.6396 20.9195L14.5758 20.8067C14.2771 20.2765 13.943 19.6834 13.1722 19.6834C13.0702 19.6839 12.9684 19.6933 12.868 19.7116C12.8531 19.7144 12.838 19.7159 12.8228 19.7162C12.7803 19.6493 12.7439 19.5787 12.7142 19.5053C12.5884 19.2246 12.3777 18.7548 11.7662 18.6852C11.1826 18.6187 11.0616 18.5436 10.7015 18.3206C10.6516 18.2896 10.5983 18.2566 10.5398 18.2213C9.94781 17.8623 9.57471 18.1634 9.35151 18.3433C9.25891 18.4242 9.15681 18.4934 9.04741 18.5494C8.64291 18.7423 8.49831 19.1365 8.39281 19.4242C8.36531 19.5038 8.33361 19.5818 8.29791 19.658C8.09971 19.5294 7.71521 19.075 7.42861 18.6207C7.40391 18.5814 7.37291 18.5465 7.33681 18.5174C6.52321 17.8596 5.77451 17.6252 5.11221 17.8208C3.93641 18.1681 3.42391 19.7319 3.04971 20.8738C2.96381 21.1573 2.86241 21.4359 2.74591 21.7083C2.55441 21.5691 2.02721 20.9792 0.962914 18.4826C0.837114 18.1873 0.810814 17.9546 0.890714 17.8436C1.01021 17.6773 1.41321 17.6279 1.64681 17.6468C1.66001 17.6481 1.67321 17.6487 1.68651 17.6484C1.82021 17.6424 1.95091 17.6071 2.06941 17.5451C2.18791 17.483 2.29141 17.3957 2.37251 17.2893C2.67361 16.9114 2.73341 16.3029 2.55021 15.481C2.31071 14.4067 2.34501 12.8194 2.98611 11.873C3.13091 11.6491 3.32221 11.459 3.54701 11.3157C3.77181 11.1723 4.02491 11.0791 4.28901 11.0422C5.70771 10.8129 6.39871 9.93375 6.90331 9.29195C7.28581 8.80536 7.43151 8.66166 7.59541 8.70976C8.07971 8.85176 8.37671 9.28626 8.41031 9.62256C8.42441 9.76436 8.39221 9.85706 8.31431 9.89796C8.21501 9.95016 8.05341 10.0035 7.79581 9.86406C7.68901 9.80626 7.57101 9.77205 7.44981 9.76375C7.32861 9.75546 7.20711 9.77336 7.09341 9.81626C6.98131 9.85836 6.87961 9.92416 6.79521 10.0091C6.71081 10.094 6.64561 10.1961 6.60411 10.3084C6.18771 11.4382 6.63921 11.8117 6.94521 11.9337C7.31211 12.0801 7.90071 11.9879 8.90941 11.8122C9.71501 11.672 10.8182 11.4799 11.2532 11.6425C11.4277 11.6979 11.5836 11.8002 11.7039 11.9382C12.0625 12.3163 12.3941 12.4286 13.5377 12.3053C14.591 12.1918 15.0717 11.4763 15.3897 11.0029C15.4135 10.9677 15.4397 10.9285 15.4663 10.8898C15.4679 11.0541 15.4179 11.2148 15.3235 11.3494C15.2376 11.4905 15.1308 11.6178 15.0066 11.7268C14.7336 11.9704 14.6947 12.1525 14.6947 12.6967C14.6882 12.9 14.7492 13.0997 14.8682 13.2647C14.9872 13.4296 15.1576 13.5504 15.3526 13.6083C15.5065 13.6604 15.6708 13.6742 15.8312 13.6485C15.9916 13.6228 16.1434 13.5583 16.2733 13.4606C16.4078 13.3602 16.5158 13.2284 16.5878 13.0768C16.6599 12.9251 16.6939 12.7582 16.6869 12.5904C16.6823 12.4834 16.7981 12.2757 16.9598 12.1577C17.3735 11.856 17.3523 11.341 17.3368 10.965C17.3293 10.8523 17.3296 10.7392 17.3376 10.6266C17.7924 10.5552 18.0202 10.2708 18.1879 10.0614C18.3513 9.85746 18.4804 9.69646 18.8396 9.62276C19.1361 9.56156 19.4248 9.46726 19.7001 9.34146C19.6526 9.40906 19.5967 9.48116 19.5547 9.53526C19.4 9.73426 19.2252 9.95975 19.1383 10.2195C19.0953 10.3332 19.0878 10.4572 19.1168 10.5753C19.1459 10.6933 19.2101 10.7997 19.301 10.8804C19.8329 11.3491 21.1906 10.8589 21.6244 10.6501C21.7055 10.6111 21.7878 10.5702 21.8709 10.5289C22.2675 10.3321 22.8105 10.0624 23.0381 10.147C23.0579 10.154 23.1183 10.1769 23.1793 10.3219C23.3475 10.7215 23.6703 10.9276 24.0435 10.8733C24.652 10.7845 25.3935 9.86666 25.5271 8.64186C25.5957 8.01256 25.9362 7.82886 26.638 7.50486C26.9703 7.36226 27.2887 7.18936 27.5893 6.98836C28.5519 6.31106 28.9438 5.94646 28.9438 5.05326C28.9443 4.85406 28.9945 4.65806 29.09 4.48316C29.1793 4.29096 29.2903 4.05165 29.2484 3.71755C29.2291 3.59525 29.2004 3.47466 29.1626 3.35676C29.1257 3.22945 29.0501 2.96936 29.0736 2.87936C29.1037 2.86406 29.2349 2.81476 29.6132 2.86536C30.1292 2.93456 30.1199 3.10385 30.0924 3.60655C30.0722 3.97435 30.0385 4.58986 30.6301 4.83006C30.687 4.85316 30.7439 4.87526 30.8004 4.89706C31.4243 5.13876 31.801 5.28476 31.5202 6.96396C31.1634 9.09766 31.5292 10.3568 32.6716 10.9261C33.1865 11.1827 33.6483 12.2092 33.7378 12.7004C33.4929 12.5856 33.0575 12.2766 32.6371 11.7179Z" fill="#1AA6E8" stroke="#1AA6E8" stroke-width="0.4"/>
</g>
<defs>
<clipPath id="clip0_97_3539">
<rect width="35" height="30" fill="white"/>
</clipPath>
</defs>
</svg>
