<svg width="30" height="30" viewBox="0 0 30 30" fill="none" xmlns="http://www.w3.org/2000/svg">
<rect width="30" height="30" fill="white"/>
<path d="M19.3636 19.3333C19.3636 18.1231 15.9447 17.1429 11.7273 17.1429M19.3636 19.3333C19.3636 20.5436 15.9447 21.5238 11.7273 21.5238C7.50982 21.5238 4.09091 20.5436 4.09091 19.3333M19.3636 19.3333V24.7405C19.3636 25.988 15.9447 27 11.7273 27C7.50982 27 4.09091 25.9891 4.09091 24.7405V19.3333M19.3636 19.3333C23.5353 19.3333 27 18.2523 27 17.1429V6.19048M11.7273 17.1429C7.50982 17.1429 4.09091 18.1231 4.09091 19.3333M11.7273 17.1429C6.90764 17.1429 3 16.0619 3 14.9524V9.47619M11.7273 7.28571C6.90764 7.28571 3 8.26595 3 9.47619M3 9.47619C3 10.6864 6.90764 11.6667 11.7273 11.6667C11.7273 12.7761 15.276 13.8571 19.4476 13.8571C23.6193 13.8571 27 12.7761 27 11.6667M27 6.19048C27 4.98024 23.6182 4 19.4476 4C15.2771 4 11.8953 4.98024 11.8953 6.19048M27 6.19048C27 7.40071 23.6182 8.38095 19.4476 8.38095C15.2771 8.38095 11.8953 7.40071 11.8953 6.19048M11.8953 6.19048V17.3247" stroke="#1AA6E8" stroke-width="1.3"/>
</svg>
